<?xml version="1.0" encoding="utf-8"?>
<!-- Generator: Adobe Illustrator 16.0.0, SVG Export Plug-In . SVG Version: 6.00 Build 0)  -->
<!DOCTYPE svg PUBLIC "-//W3C//DTD SVG 1.1//EN" "http://www.w3.org/Graphics/SVG/1.1/DTD/svg11.dtd">
<svg version="1.1" id="Layer_1" xmlns="http://www.w3.org/2000/svg" xmlns:xlink="http://www.w3.org/1999/xlink" x="0px" y="0px"
	 width="182.3px" height="58.2px" viewBox="0 0 182.3 58.2" enable-background="new 0 0 182.3 58.2" xml:space="preserve">
<g>
	<path fill="#FFFFFF" d="M69.1,21.2h-2.7L66.1,22c-0.1,0.3-0.2,0.5-0.2,0.6c0,0.2,0.1,0.4,0.3,0.5c0.1,0.1,0.3,0.1,0.7,0.1v0.2h-2.5
		v-0.2c0.3,0,0.5-0.2,0.7-0.3c0.2-0.2,0.4-0.6,0.7-1.2l2.7-6.1h0.1l2.8,6.3c0.3,0.6,0.5,1,0.7,1.1c0.1,0.1,0.3,0.2,0.5,0.2v0.2h-3.7
		v-0.2H69c0.3,0,0.5,0,0.6-0.1c0.1-0.1,0.1-0.1,0.1-0.3c0-0.1,0-0.1,0-0.2c0,0-0.1-0.2-0.2-0.4L69.1,21.2L69.1,21.2z M68.9,20.8
		l-1.1-2.7l-1.2,2.7H68.9L68.9,20.8z"/>
	<path fill="#FFFFFF" d="M77.3,18.1v4.1c0,0.4,0,0.7,0.1,0.8c0.1,0.1,0.2,0.2,0.5,0.2v0.2h-2.1v-0.7c-0.3,0.3-0.5,0.5-0.8,0.7
		c-0.3,0.1-0.5,0.2-0.9,0.2c-0.3,0-0.6-0.1-0.8-0.3c-0.2-0.2-0.4-0.4-0.5-0.6s-0.1-0.7-0.1-1.3v-2.1c0-0.4,0-0.7-0.1-0.8
		c-0.1-0.1-0.2-0.2-0.5-0.2v-0.2h2.2v3.6c0,0.4,0,0.6,0.1,0.7c0,0.1,0.1,0.2,0.2,0.3c0.1,0.1,0.2,0.1,0.3,0.1c0.1,0,0.3,0,0.4-0.1
		c0.2-0.1,0.3-0.3,0.5-0.6v-2.8c0-0.4,0-0.7-0.1-0.8c-0.1-0.1-0.2-0.2-0.5-0.2v-0.2H77.3L77.3,18.1z"/>
	<path fill="#FFFFFF" d="M81.5,18l0.1,1.8h-0.2c-0.2-0.5-0.5-0.9-0.7-1.1c-0.2-0.2-0.5-0.3-0.7-0.3c-0.2,0-0.3,0.1-0.4,0.2
		c-0.1,0.1-0.2,0.2-0.2,0.4c0,0.1,0,0.2,0.1,0.3c0.1,0.2,0.5,0.4,1,0.8c0.5,0.4,0.9,0.7,1.1,1c0.2,0.3,0.3,0.5,0.3,0.9
		c0,0.3-0.1,0.6-0.2,0.9c-0.1,0.3-0.4,0.5-0.6,0.7c-0.3,0.2-0.5,0.2-0.9,0.2c-0.3,0-0.6-0.1-1-0.2c-0.1,0-0.2-0.1-0.2-0.1
		c-0.1,0-0.2,0.1-0.3,0.3h-0.2l-0.1-1.9h0.2c0.2,0.5,0.4,0.9,0.7,1.1c0.3,0.3,0.6,0.4,0.8,0.4c0.2,0,0.3-0.1,0.4-0.2
		c0.1-0.1,0.2-0.3,0.2-0.4c0-0.2-0.1-0.3-0.2-0.5c-0.1-0.1-0.4-0.3-0.8-0.6c-0.6-0.4-1-0.7-1.1-0.9c-0.3-0.3-0.4-0.7-0.4-1
		c0-0.4,0.1-0.8,0.4-1.1c0.3-0.3,0.7-0.5,1.2-0.5c0.3,0,0.6,0.1,0.8,0.2c0.1,0.1,0.2,0.1,0.2,0.1c0.1,0,0.1,0,0.2,0
		c0,0,0.1-0.1,0.2-0.2H81.5L81.5,18z"/>
	<path fill="#FFFFFF" d="M84.4,16.2v1.9h1.3v0.6h-1.3v3.3c0,0.3,0,0.5,0,0.6c0,0.1,0.1,0.2,0.2,0.2c0.1,0.1,0.1,0.1,0.2,0.1
		c0.2,0,0.5-0.2,0.7-0.6l0.2,0.1c-0.3,0.7-0.8,1.1-1.5,1.1c-0.3,0-0.6-0.1-0.9-0.3c-0.2-0.2-0.4-0.4-0.4-0.6c0-0.1-0.1-0.5-0.1-1
		v-2.9h-0.7v-0.2c0.5-0.3,0.9-0.7,1.2-1.1c0.3-0.4,0.6-0.8,0.9-1.2H84.4L84.4,16.2z"/>
	<path fill="#FFFFFF" d="M88.2,18.1v1.2c0.4-0.5,0.7-0.9,0.9-1.1c0.3-0.2,0.5-0.3,0.8-0.3c0.2,0,0.4,0.1,0.5,0.2
		c0.1,0.1,0.2,0.3,0.2,0.6c0,0.3-0.1,0.5-0.2,0.6c-0.1,0.1-0.3,0.2-0.4,0.2c-0.2,0-0.4-0.1-0.5-0.2c-0.1-0.1-0.2-0.2-0.3-0.2
		c0,0-0.1,0-0.1,0c-0.1,0-0.2,0-0.3,0.1c-0.2,0.1-0.3,0.3-0.4,0.6c-0.1,0.4-0.2,0.8-0.2,1.2v1.2l0,0.3c0,0.2,0,0.4,0,0.4
		c0,0.1,0.1,0.2,0.2,0.2c0.1,0,0.2,0.1,0.5,0.1v0.2H86v-0.2c0.2,0,0.4-0.1,0.5-0.2c0.1-0.1,0.1-0.4,0.1-0.9v-2.9c0-0.3,0-0.5,0-0.6
		c0-0.1-0.1-0.2-0.2-0.2c-0.1,0-0.2-0.1-0.4-0.1v-0.2H88.2L88.2,18.1z"/>
	<path fill="#FFFFFF" d="M93.5,22.6c-0.6,0.6-1.2,0.9-1.7,0.9c-0.3,0-0.6-0.1-0.8-0.3c-0.2-0.2-0.3-0.5-0.3-0.8
		c0-0.4,0.2-0.8,0.5-1.1c0.3-0.3,1.1-0.8,2.3-1.3v-0.5c0-0.4,0-0.7-0.1-0.8c0-0.1-0.1-0.2-0.2-0.3c-0.1-0.1-0.3-0.1-0.4-0.1
		c-0.2,0-0.5,0.1-0.6,0.2c-0.1,0.1-0.1,0.1-0.1,0.2c0,0.1,0.1,0.2,0.2,0.3c0.1,0.2,0.2,0.3,0.2,0.5c0,0.2-0.1,0.3-0.2,0.5
		c-0.1,0.1-0.3,0.2-0.5,0.2c-0.2,0-0.4-0.1-0.6-0.2c-0.2-0.1-0.2-0.3-0.2-0.5c0-0.3,0.1-0.5,0.3-0.8c0.2-0.3,0.5-0.4,0.9-0.6
		s0.8-0.2,1.2-0.2c0.5,0,0.9,0.1,1.2,0.3c0.3,0.2,0.5,0.4,0.6,0.7c0.1,0.2,0.1,0.5,0.1,1.1v2c0,0.2,0,0.4,0,0.5c0,0.1,0,0.1,0.1,0.1
		c0,0,0.1,0,0.1,0c0.1,0,0.2-0.1,0.3-0.2l0.2,0.1c-0.2,0.3-0.4,0.5-0.6,0.6c-0.2,0.1-0.4,0.2-0.7,0.2c-0.3,0-0.5-0.1-0.7-0.2
		C93.6,23.1,93.5,22.9,93.5,22.6L93.5,22.6z M93.5,22.2v-1.8c-0.5,0.3-0.8,0.6-1,0.9c-0.1,0.2-0.2,0.4-0.2,0.6
		c0,0.2,0.1,0.3,0.2,0.5c0.1,0.1,0.2,0.2,0.4,0.2C93,22.5,93.3,22.4,93.5,22.2L93.5,22.2z"/>
	<path fill="#FFFFFF" d="M98.1,15.7v6.6c0,0.4,0,0.6,0.1,0.7c0.1,0.1,0.3,0.2,0.5,0.2v0.2h-2.8v-0.2c0.2,0,0.4-0.1,0.5-0.2
		c0.1-0.1,0.1-0.3,0.1-0.7v-5.5c0-0.4,0-0.6-0.1-0.7c-0.1-0.1-0.3-0.2-0.5-0.2v-0.2L98.1,15.7L98.1,15.7z"/>
	<path fill="#FFFFFF" d="M100.5,15.5c0.2,0,0.5,0.1,0.6,0.3c0.2,0.2,0.3,0.4,0.3,0.6c0,0.2-0.1,0.4-0.3,0.6
		c-0.2,0.2-0.4,0.3-0.6,0.3s-0.4-0.1-0.6-0.3c-0.2-0.2-0.3-0.4-0.3-0.6c0-0.2,0.1-0.5,0.3-0.6C100.1,15.6,100.3,15.5,100.5,15.5
		L100.5,15.5z M101.3,18.1v4.2c0,0.4,0,0.6,0.1,0.7c0.1,0.1,0.3,0.2,0.5,0.2v0.2h-2.9v-0.2c0.2,0,0.4-0.1,0.5-0.2
		c0.1-0.1,0.1-0.3,0.1-0.7v-3.1c0-0.4,0-0.6-0.1-0.7c-0.1-0.1-0.3-0.2-0.5-0.2v-0.2H101.3L101.3,18.1z"/>
	<path fill="#FFFFFF" d="M105.1,22.6c-0.6,0.6-1.2,0.9-1.7,0.9c-0.3,0-0.6-0.1-0.8-0.3c-0.2-0.2-0.3-0.5-0.3-0.8
		c0-0.4,0.2-0.8,0.5-1.1c0.3-0.3,1.1-0.8,2.3-1.3v-0.5c0-0.4,0-0.7-0.1-0.8c0-0.1-0.1-0.2-0.2-0.3c-0.1-0.1-0.3-0.1-0.4-0.1
		c-0.2,0-0.4,0.1-0.6,0.2c-0.1,0.1-0.1,0.1-0.1,0.2c0,0.1,0.1,0.2,0.2,0.3c0.1,0.2,0.2,0.3,0.2,0.5c0,0.2-0.1,0.3-0.2,0.5
		c-0.1,0.1-0.3,0.2-0.5,0.2c-0.2,0-0.4-0.1-0.6-0.2c-0.2-0.1-0.2-0.3-0.2-0.5c0-0.3,0.1-0.5,0.3-0.8c0.2-0.3,0.5-0.4,0.9-0.6
		c0.4-0.1,0.8-0.2,1.2-0.2c0.5,0,0.9,0.1,1.2,0.3c0.3,0.2,0.5,0.4,0.6,0.7c0.1,0.2,0.1,0.5,0.1,1.1v2c0,0.2,0,0.4,0,0.5
		c0,0.1,0,0.1,0.1,0.1c0,0,0.1,0,0.1,0c0.1,0,0.2-0.1,0.3-0.2l0.2,0.1c-0.2,0.3-0.4,0.5-0.6,0.6c-0.2,0.1-0.4,0.2-0.7,0.2
		c-0.3,0-0.5-0.1-0.7-0.2C105.2,23.1,105.1,22.9,105.1,22.6L105.1,22.6z M105.1,22.2v-1.8c-0.5,0.3-0.8,0.6-1,0.9
		c-0.1,0.2-0.2,0.4-0.2,0.6c0,0.2,0.1,0.3,0.2,0.5c0.1,0.1,0.2,0.2,0.4,0.2C104.6,22.5,104.8,22.4,105.1,22.2L105.1,22.2z"/>
	<path fill="#FFFFFF" d="M109.6,18.1v0.7c0.3-0.3,0.5-0.5,0.8-0.6c0.3-0.1,0.5-0.2,0.8-0.2c0.3,0,0.6,0.1,0.9,0.3
		c0.2,0.2,0.4,0.4,0.5,0.7c0.1,0.2,0.1,0.6,0.1,1.2v2.1c0,0.4,0,0.7,0.1,0.8c0.1,0.1,0.2,0.2,0.5,0.2v0.2h-2.7v-0.2
		c0.2,0,0.3-0.1,0.4-0.3c0.1-0.1,0.1-0.3,0.1-0.7v-2.4c0-0.4,0-0.7-0.1-0.8c0-0.1-0.1-0.2-0.2-0.3c-0.1-0.1-0.2-0.1-0.3-0.1
		c-0.3,0-0.6,0.2-0.9,0.7v2.8c0,0.4,0,0.7,0.1,0.8c0.1,0.1,0.2,0.2,0.4,0.2v0.2h-2.7v-0.2c0.2,0,0.3-0.1,0.4-0.2
		c0.1-0.1,0.1-0.3,0.1-0.7v-3c0-0.4,0-0.7-0.1-0.8c-0.1-0.1-0.2-0.2-0.4-0.2v-0.2L109.6,18.1L109.6,18.1z"/>
	<path fill="#FFFFFF" d="M123.7,15.6v2.7h-0.2c-0.3-0.7-0.6-1.3-1.1-1.7c-0.5-0.4-1.1-0.6-1.7-0.6c-0.6,0-1.1,0.2-1.4,0.5
		c-0.4,0.3-0.7,0.8-0.8,1.3c-0.2,0.6-0.2,1.2-0.2,1.8c0,0.7,0.1,1.4,0.3,1.9c0.2,0.6,0.5,1,0.8,1.2c0.4,0.3,0.9,0.4,1.4,0.4
		c0.2,0,0.4,0,0.6-0.1c0.2,0,0.4-0.1,0.6-0.2v-1.6c0-0.3,0-0.5-0.1-0.6c0-0.1-0.1-0.2-0.3-0.2c-0.1-0.1-0.3-0.1-0.5-0.1h-0.2v-0.2
		h3.8v0.2c-0.3,0-0.5,0.1-0.6,0.1c-0.1,0.1-0.2,0.2-0.3,0.3c0,0.1-0.1,0.2-0.1,0.5v1.6c-0.5,0.2-1,0.4-1.5,0.5
		c-0.5,0.1-1.1,0.2-1.7,0.2c-0.7,0-1.3-0.1-1.8-0.3c-0.5-0.2-0.9-0.5-1.2-0.8c-0.4-0.3-0.7-0.7-0.9-1.1c-0.3-0.5-0.4-1.1-0.4-1.7
		c0-1.2,0.4-2.1,1.2-2.9c0.8-0.8,1.8-1.2,3-1.2c0.4,0,0.7,0,1,0.1c0.2,0,0.4,0.1,0.8,0.3c0.4,0.1,0.6,0.2,0.7,0.2
		c0.1,0,0.2,0,0.3-0.1c0.1-0.1,0.2-0.2,0.3-0.4L123.7,15.6L123.7,15.6z"/>
	<path fill="#FFFFFF" d="M127.3,17.9c0.5,0,0.9,0.1,1.3,0.4c0.4,0.2,0.7,0.6,0.9,1c0.2,0.4,0.3,0.9,0.3,1.4c0,0.7-0.2,1.4-0.6,1.9
		c-0.5,0.6-1.1,0.9-1.9,0.9c-0.8,0-1.4-0.3-1.8-0.8c-0.4-0.6-0.6-1.2-0.6-1.9c0-0.8,0.2-1.4,0.7-2C126,18.2,126.6,17.9,127.3,17.9
		L127.3,17.9z M127.3,18.4c-0.2,0-0.3,0.1-0.5,0.2c-0.1,0.1-0.2,0.4-0.3,0.9c0,0.4-0.1,1-0.1,1.8c0,0.4,0,0.8,0.1,1.1
		c0,0.3,0.1,0.5,0.3,0.6c0.1,0.1,0.3,0.2,0.4,0.2c0.2,0,0.3,0,0.4-0.1c0.1-0.1,0.2-0.3,0.3-0.5c0.1-0.4,0.1-1.1,0.1-2.2
		c0-0.6,0-1.1-0.1-1.3c-0.1-0.2-0.2-0.4-0.3-0.5C127.6,18.4,127.5,18.4,127.3,18.4L127.3,18.4z"/>
	<path fill="#FFFFFF" d="M132.3,23.6l-1.8-4.1c-0.2-0.5-0.4-0.8-0.5-0.9c-0.1-0.1-0.2-0.2-0.4-0.2v-0.2h2.8v0.2
		c-0.2,0-0.3,0-0.4,0.1c-0.1,0.1-0.1,0.2-0.1,0.3c0,0.1,0.1,0.4,0.3,0.8l0.9,2l0.7-1.7c0.2-0.5,0.3-0.8,0.3-1c0-0.1,0-0.2-0.1-0.3
		c-0.1-0.1-0.2-0.1-0.4-0.1v-0.2h1.7v0.2c-0.2,0-0.3,0.1-0.4,0.2c-0.1,0.1-0.3,0.4-0.5,0.9l-1.8,4.2L132.3,23.6L132.3,23.6z"/>
	<path fill="#FFFFFF" d="M139.4,20.6h-2.9c0,0.7,0.2,1.2,0.5,1.7c0.3,0.3,0.6,0.5,0.9,0.5c0.2,0,0.4-0.1,0.6-0.2
		c0.2-0.1,0.4-0.4,0.6-0.7l0.2,0.1c-0.3,0.6-0.6,1-1,1.3c-0.3,0.2-0.8,0.4-1.2,0.4c-0.8,0-1.3-0.3-1.8-0.9c-0.3-0.5-0.5-1.1-0.5-1.8
		c0-0.9,0.2-1.6,0.7-2.1c0.5-0.5,1-0.8,1.7-0.8c0.5,0,1,0.2,1.4,0.7C139.2,19.1,139.4,19.7,139.4,20.6L139.4,20.6z M138,20.2
		c0-0.6,0-1-0.1-1.3c-0.1-0.2-0.2-0.4-0.3-0.5c-0.1-0.1-0.2-0.1-0.3-0.1c-0.2,0-0.3,0.1-0.4,0.3c-0.2,0.3-0.3,0.8-0.3,1.4v0.2H138
		L138,20.2z"/>
	<path fill="#FFFFFF" d="M142,18.1v1.2c0.4-0.5,0.7-0.9,0.9-1.1c0.3-0.2,0.5-0.3,0.8-0.3c0.2,0,0.4,0.1,0.5,0.2
		c0.1,0.1,0.2,0.3,0.2,0.6c0,0.3-0.1,0.5-0.2,0.6c-0.1,0.1-0.3,0.2-0.4,0.2c-0.2,0-0.4-0.1-0.5-0.2c-0.1-0.1-0.2-0.2-0.3-0.2
		c0,0-0.1,0-0.1,0c-0.1,0-0.2,0-0.3,0.1c-0.2,0.1-0.3,0.3-0.4,0.6c-0.1,0.4-0.2,0.8-0.2,1.2v1.2l0,0.3c0,0.2,0,0.4,0,0.4
		c0,0.1,0.1,0.2,0.2,0.2c0.1,0,0.2,0.1,0.5,0.1v0.2h-2.9v-0.2c0.2,0,0.4-0.1,0.5-0.2c0.1-0.1,0.1-0.4,0.1-0.9v-2.9
		c0-0.3,0-0.5,0-0.6c0-0.1-0.1-0.2-0.2-0.2c-0.1,0-0.2-0.1-0.4-0.1v-0.2H142L142,18.1z"/>
	<path fill="#FFFFFF" d="M146.8,18.1v0.7c0.3-0.3,0.5-0.5,0.8-0.6c0.3-0.1,0.5-0.2,0.8-0.2c0.3,0,0.6,0.1,0.9,0.3
		c0.2,0.2,0.4,0.4,0.5,0.7c0.1,0.2,0.1,0.6,0.1,1.2v2.1c0,0.4,0,0.7,0.1,0.8c0.1,0.1,0.2,0.2,0.5,0.2v0.2h-2.7v-0.2
		c0.2,0,0.3-0.1,0.4-0.3c0.1-0.1,0.1-0.3,0.1-0.7v-2.4c0-0.4,0-0.7-0.1-0.8c0-0.1-0.1-0.2-0.2-0.3c-0.1-0.1-0.2-0.1-0.3-0.1
		c-0.3,0-0.6,0.2-0.9,0.7v2.8c0,0.4,0,0.7,0.1,0.8c0.1,0.1,0.2,0.2,0.4,0.2v0.2h-2.7v-0.2c0.2,0,0.4-0.1,0.5-0.2
		c0.1-0.1,0.1-0.3,0.1-0.7v-3c0-0.4,0-0.7-0.1-0.8c-0.1-0.1-0.2-0.2-0.5-0.2v-0.2L146.8,18.1L146.8,18.1z"/>
	<path fill="#FFFFFF" d="M153,18.1v0.7c0.3-0.3,0.6-0.5,0.8-0.7c0.3-0.1,0.5-0.2,0.8-0.2c0.3,0,0.6,0.1,0.9,0.2
		c0.2,0.2,0.4,0.4,0.5,0.7c0.3-0.3,0.6-0.6,0.8-0.7c0.3-0.2,0.6-0.2,0.9-0.2c0.4,0,0.7,0.1,0.9,0.3c0.2,0.2,0.4,0.4,0.5,0.6
		c0.1,0.3,0.1,0.7,0.1,1.2v2.2c0,0.4,0,0.7,0.1,0.8c0.1,0.1,0.2,0.2,0.5,0.2v0.2H157v-0.2c0.2,0,0.4-0.1,0.5-0.3
		c0.1-0.1,0.1-0.3,0.1-0.7V20c0-0.5,0-0.8-0.1-0.9c0-0.1-0.1-0.2-0.2-0.3c-0.1-0.1-0.2-0.1-0.3-0.1c-0.2,0-0.3,0.1-0.5,0.2
		c-0.2,0.1-0.3,0.3-0.5,0.5v2.8c0,0.4,0,0.6,0.1,0.7c0.1,0.1,0.2,0.2,0.5,0.2v0.2H154v-0.2c0.1,0,0.3,0,0.3-0.1
		c0.1-0.1,0.1-0.1,0.2-0.2c0-0.1,0-0.3,0-0.6V20c0-0.5,0-0.8-0.1-0.9c0-0.1-0.1-0.2-0.2-0.3c-0.1-0.1-0.2-0.1-0.3-0.1
		c-0.2,0-0.3,0-0.4,0.1c-0.2,0.1-0.4,0.3-0.6,0.6v2.8c0,0.4,0,0.6,0.1,0.7c0.1,0.1,0.2,0.2,0.5,0.2v0.2h-2.7v-0.2
		c0.2,0,0.4-0.1,0.5-0.2c0.1-0.1,0.1-0.3,0.1-0.7v-3c0-0.4,0-0.7-0.1-0.8c-0.1-0.1-0.2-0.2-0.5-0.2v-0.2L153,18.1L153,18.1z"/>
	<path fill="#FFFFFF" d="M164.5,20.6h-2.9c0,0.7,0.2,1.2,0.6,1.7c0.3,0.3,0.6,0.5,0.9,0.5c0.2,0,0.4-0.1,0.6-0.2
		c0.2-0.1,0.4-0.4,0.6-0.7l0.2,0.1c-0.3,0.6-0.6,1-1,1.3c-0.3,0.2-0.8,0.4-1.2,0.4c-0.8,0-1.4-0.3-1.8-0.9c-0.3-0.5-0.5-1.1-0.5-1.8
		c0-0.9,0.2-1.6,0.7-2.1c0.5-0.5,1-0.8,1.7-0.8c0.5,0,1,0.2,1.4,0.7C164.3,19.1,164.5,19.7,164.5,20.6L164.5,20.6z M163.1,20.2
		c0-0.6,0-1-0.1-1.3c-0.1-0.2-0.2-0.4-0.3-0.5c-0.1-0.1-0.2-0.1-0.3-0.1c-0.2,0-0.4,0.1-0.5,0.3c-0.2,0.3-0.3,0.8-0.3,1.4v0.2H163.1
		L163.1,20.2z"/>
	<path fill="#FFFFFF" d="M166.8,18.1v0.7c0.3-0.3,0.5-0.5,0.8-0.6c0.3-0.1,0.5-0.2,0.8-0.2c0.3,0,0.6,0.1,0.9,0.3
		c0.2,0.2,0.4,0.4,0.5,0.7c0.1,0.2,0.1,0.6,0.1,1.2v2.1c0,0.4,0,0.7,0.1,0.8c0.1,0.1,0.2,0.2,0.5,0.2v0.2h-2.7v-0.2
		c0.2,0,0.3-0.1,0.4-0.3c0.1-0.1,0.1-0.3,0.1-0.7v-2.4c0-0.4,0-0.7-0.1-0.8c0-0.1-0.1-0.2-0.2-0.3c-0.1-0.1-0.2-0.1-0.3-0.1
		c-0.3,0-0.6,0.2-0.9,0.7v2.8c0,0.4,0,0.7,0.1,0.8c0.1,0.1,0.2,0.2,0.4,0.2v0.2h-2.7v-0.2c0.2,0,0.4-0.1,0.5-0.2
		c0.1-0.1,0.1-0.3,0.1-0.7v-3c0-0.4,0-0.7-0.1-0.8c-0.1-0.1-0.2-0.2-0.5-0.2v-0.2L166.8,18.1L166.8,18.1z"/>
	<path fill="#FFFFFF" d="M172.7,16.2v1.9h1.3v0.6h-1.3v3.3c0,0.3,0,0.5,0,0.6c0,0.1,0.1,0.2,0.2,0.2c0.1,0.1,0.1,0.1,0.2,0.1
		c0.2,0,0.5-0.2,0.7-0.6l0.2,0.1c-0.3,0.7-0.8,1.1-1.5,1.1c-0.3,0-0.6-0.1-0.9-0.3c-0.2-0.2-0.4-0.4-0.4-0.6c0-0.1-0.1-0.5-0.1-1
		v-2.9h-0.7v-0.2c0.5-0.3,0.9-0.7,1.2-1.1c0.3-0.4,0.6-0.8,0.9-1.2H172.7L172.7,16.2z"/>
	<rect x="64.4" y="28.7" fill="#FFFFFF" width="115.7" height="0.6"/>
	<polygon fill="#FFFFFF" points="31,2.8 31.5,4.4 33.2,3.8 32.3,5.4 34.1,6.4 32.2,6.7 32.3,8.5 31,7.2 30.9,7.2 29.6,8.5 29.7,6.7
		27.8,6.4 29.6,5.4 28.7,3.8 30.4,4.4 30.9,2.8 	"/>
	<path fill="#FFFFFF" d="M33.5,9h-5.1c-0.3,0-0.5,0.3-0.5,0.6c0,0.3,0.2,0.6,0.5,0.6h5.1c0.3,0,0.5-0.3,0.5-0.6
		C34,9.2,33.8,9,33.5,9L33.5,9z M28.9,9.9l-0.3-0.7h0.9l0.3,0.7H28.9L28.9,9.9z M30.7,9.9l-0.3-0.7h0.9l0.3,0.7H30.7L30.7,9.9z
		 M32.4,9.9l-0.3-0.7H33l0.3,0.7H32.4L32.4,9.9z"/>
	<path fill="#FFFFFF" d="M25.1,13.1c0.5-0.1,1.2-0.5,1.6-0.6c0.4,0,0.8,0,1.1,0.2c0.4,0.1,0.5,0.2,0.5,0.5c0.1,0.2-3.3,0.1-3.3,0.1
		L25.1,13.1L25.1,13.1z"/>
	<path fill="#FFFFFF" d="M28,13.9c0-0.1,0.1-0.2,0.2-0.2s0.2,0.1,0.2,0.2c0,0.1-0.1,0.2-0.2,0.2S28,14,28,13.9L28,13.9z"/>
	<path fill="#FFFFFF" d="M31,13.9c0,0.1-0.1,0.2-0.2,0.2s-0.2-0.1-0.2-0.2c0-0.1,0.1-0.2,0.2-0.2S31,13.8,31,13.9L31,13.9z"/>
	<path fill="#FFFFFF" d="M33.7,13.9c0,0.1-0.1,0.2-0.2,0.2c-0.1,0-0.2-0.1-0.2-0.2c0-0.1,0.1-0.2,0.2-0.2
		C33.6,13.7,33.7,13.8,33.7,13.9L33.7,13.9z"/>
	<path fill="#FFFFFF" d="M25.7,13.9c0,0.1-0.1,0.2-0.2,0.2c-0.1,0-0.2-0.1-0.2-0.2c0-0.1,0.1-0.2,0.2-0.2S25.7,13.8,25.7,13.9
		L25.7,13.9z"/>
	<path fill="#FFFFFF" d="M25.7,17.3c0,0.1-0.1,0.2-0.2,0.2c-0.1,0-0.2-0.1-0.2-0.2c0-0.1,0.1-0.2,0.2-0.2
		C25.6,17.1,25.7,17.2,25.7,17.3L25.7,17.3z"/>
	<path fill="#FFFFFF" d="M25.7,21c0,0.1-0.1,0.2-0.2,0.2c-0.1,0-0.2-0.1-0.2-0.2c0-0.1,0.1-0.2,0.2-0.2S25.7,20.9,25.7,21L25.7,21z"
		/>
	<path fill="#FFFFFF" d="M36.4,13.9c0,0.1-0.1,0.2-0.2,0.2s-0.2-0.1-0.2-0.2c0-0.1,0.1-0.2,0.2-0.2S36.4,13.8,36.4,13.9L36.4,13.9z"
		/>
	<path fill="#FFFFFF" d="M36.4,17.5c0,0.1-0.1,0.2-0.2,0.2s-0.2-0.1-0.2-0.2c0-0.1,0.1-0.2,0.2-0.2S36.4,17.4,36.4,17.5L36.4,17.5z"
		/>
	<path fill="#FFFFFF" d="M36.4,20.9c0,0.1-0.1,0.2-0.2,0.2s-0.2-0.1-0.2-0.2c0-0.1,0.1-0.2,0.2-0.2S36.4,20.8,36.4,20.9L36.4,20.9z"
		/>
	<path fill="#FFFFFF" d="M35.8,23.7c0,0.1-0.1,0.2-0.2,0.2s-0.2-0.1-0.2-0.2c0-0.1,0.1-0.2,0.2-0.2S35.8,23.6,35.8,23.7L35.8,23.7z"
		/>
	<path fill="#FFFFFF" d="M33.6,25.2c0,0.1-0.1,0.2-0.2,0.2s-0.2-0.1-0.2-0.2c0-0.1,0.1-0.2,0.2-0.2S33.6,25.1,33.6,25.2L33.6,25.2z"
		/>
	<path fill="#FFFFFF" d="M31.1,26.8c0,0.1-0.1,0.2-0.2,0.2s-0.2-0.1-0.2-0.2s0.1-0.2,0.2-0.2S31.1,26.7,31.1,26.8L31.1,26.8z"/>
	<path fill="#FFFFFF" d="M28.5,25.2c0,0.1-0.1,0.2-0.2,0.2s-0.2-0.1-0.2-0.2c0-0.1,0.1-0.2,0.2-0.2S28.5,25.2,28.5,25.2L28.5,25.2z"
		/>
	<path fill="#FFFFFF" d="M26.3,23.7c0,0.1-0.1,0.2-0.2,0.2S26,23.8,26,23.7c0-0.1,0.1-0.2,0.2-0.2S26.3,23.6,26.3,23.7L26.3,23.7z"
		/>
	<path fill="#FFFFFF" d="M6,31.6c0.5,0.1,1.1,0.5,1.3,0.8c0.3,0.4,0.6,0.9,0.8,1.2c-0.6-0.1-1-0.3-1.3-0.7S6.5,32.1,6,31.6L6,31.6z"
		/>
	<path fill="#FFFFFF" d="M8.7,32.3c0.6-0.1,1.1,0.2,1.4,0.4c0.4,0.3,0.7,0.7,1,0.9c-0.7,0-1.1-0.1-1.4-0.4S9.3,32.6,8.7,32.3
		L8.7,32.3z"/>
	<path fill="#FFFFFF" d="M7.9,34.1c-0.4,0-1.6,0-2.2,0.4c-0.5,0.3-0.6,0.6-0.7,0.8c0.5,0,1.2,0,1.8-0.4C7.3,34.3,7.4,34.3,7.9,34.1
		L7.9,34.1z"/>
	<path fill="#FFFFFF" d="M8.5,36.6c0.1-0.6,0.5-1.1,0.9-1.3c0.4-0.3,0.9-0.5,1.2-0.7c-0.2,0.7-0.5,1-0.8,1.3
		C9.3,36.2,9,36.2,8.5,36.6L8.5,36.6z"/>
	<path fill="#FFFFFF" d="M14.2,36c-0.4,0-1.5,0.3-1.9,0.8c-0.4,0.4-0.5,0.7-0.5,0.9c0.4-0.1,1.1-0.2,1.5-0.8
		C13.8,36.4,13.8,36.3,14.2,36L14.2,36z"/>
	<path fill="#FFFFFF" d="M15.5,38.1c0.1,0.4-0.3,1.9-1.6,1.8c0.1-0.5,0.5-0.9,0.9-1.1S15.4,38.4,15.5,38.1L15.5,38.1z"/>
	<path fill="#FFFFFF" d="M17.4,41.3c0-0.4,0-1.5-0.4-2.1c-0.3-0.4-0.5-0.6-0.7-0.7c0,0.5-0.1,1.1,0.4,1.7
		C17.2,40.8,17.2,40.8,17.4,41.3L17.4,41.3z"/>
	<path fill="#FFFFFF" d="M18.6,37.8c-0.3,0.2-1.2,0.5-1.7,0.4c-0.4-0.1-0.6-0.3-0.7-0.4c0.4-0.1,0.9-0.4,1.4-0.2
		C18.1,37.8,18.1,37.8,18.6,37.8L18.6,37.8z"/>
	<path fill="#FFFFFF" d="M18,35.9c0,0.4-0.9,1.3-2.4,0.6c0.3-0.3,0.8-0.4,1.3-0.4C17.4,36.1,17.8,36,18,35.9L18,35.9z"/>
	<path fill="#FFFFFF" d="M23.8,31c-0.2,0.4-0.7,1.4-0.6,2.1c0.1,0.5,0.2,0.8,0.3,0.9c0.2-0.4,0.6-1,0.4-1.7
		C23.8,31.6,23.8,31.5,23.8,31L23.8,31z"/>
	<path fill="#FFFFFF" d="M24.1,20.8c0.3,0.5,0.3,1.2,0.2,1.6c-0.1,0.5-0.4,1-0.5,1.4c-0.3-0.6-0.3-1.1-0.2-1.5
		C23.8,21.7,24,21.5,24.1,20.8L24.1,20.8z"/>
	<path fill="#FFFFFF" d="M9.6,12.7c0.4,0.3,0.6,0.9,0.6,1.2c0.1,0.4,0,0.9,0.1,1.3c-0.4-0.4-0.6-0.8-0.6-1.2
		C9.6,13.6,9.7,13.2,9.6,12.7L9.6,12.7z"/>
	<path fill="#FFFFFF" d="M8.4,16.2c0.5,0.1,0.9,0.4,1.2,0.6c0.3,0.3,0.5,0.8,0.7,1c-0.6-0.1-0.9-0.3-1.2-0.6
		C8.9,16.8,8.8,16.5,8.4,16.2L8.4,16.2z"/>
	<path fill="#FFFFFF" d="M7.2,17.4c0.5-0.1,1.1,0.1,1.5,0.2c0.4,0.2,0.8,0.6,1.1,0.8c-0.7,0.1-1.1,0-1.5-0.2C8,18,7.8,17.7,7.2,17.4
		L7.2,17.4z"/>
	<path fill="#FFFFFF" d="M12.4,22.6c0.2-0.3,0.9-1,1.5-1c0.5,0,0.7,0.1,0.9,0.2c-0.3,0.3-0.7,0.7-1.3,0.7
		C12.9,22.4,12.8,22.4,12.4,22.6L12.4,22.6z"/>
	<path fill="#FFFFFF" d="M12.1,24.6c-0.4-0.4-1-0.7-1.3-0.7c-0.5-0.1-1,0-1.4,0c0.5,0.5,0.9,0.7,1.3,0.7S11.4,24.4,12.1,24.6
		L12.1,24.6z"/>
	<path fill="#FFFFFF" d="M7.2,22.3c0.5,0.2,1,0.6,1.2,0.9c0.3,0.4,0.5,1,0.6,1.3c-0.6-0.2-1-0.5-1.2-0.9C7.6,23.2,7.6,22.8,7.2,22.3
		L7.2,22.3z"/>
	<path fill="#FFFFFF" d="M8.1,25.8c-0.3,0.3-1.1,0.8-1.7,0.7c-0.5,0-0.7-0.2-0.8-0.3C5.9,26,6.4,25.6,7,25.7
		C7.7,25.8,7.7,25.8,8.1,25.8L8.1,25.8z"/>
	<path fill="#FFFFFF" d="M8.8,26.1c-0.2,0.6-0.6,1.2-0.9,1.4c-0.4,0.3-0.9,0.5-1.2,0.8c0.2-0.8,0.5-1.2,0.9-1.4
		C7.9,26.6,8.3,26.5,8.8,26.1L8.8,26.1z"/>
	<path fill="#FFFFFF" d="M27.7,25.2c0.2,0.4,0.5,1.3,0.3,1.9c-0.2,0.5-0.3,0.7-0.5,0.8c-0.1-0.4-0.4-1-0.1-1.6
		C27.7,25.7,27.7,25.7,27.7,25.2L27.7,25.2z"/>
	<path fill="#FFFFFF" d="M33.6,25.6c0.2,0.3,0.6,1.2,0.4,1.9c-0.1,0.5-0.3,0.7-0.4,0.8c-0.2-0.4-0.5-0.9-0.2-1.6
		C33.5,26.1,33.6,26.1,33.6,25.6L33.6,25.6z"/>
	<path fill="#FFFFFF" d="M38.9,21.1c0.3,0.4,0.4,0.9,0.3,1.2c0,0.4-0.2,0.9-0.2,1.2c-0.3-0.5-0.4-0.9-0.3-1.2
		C38.8,21.9,39,21.6,38.9,21.1L38.9,21.1z"/>
	<path fill="#FFFFFF" d="M35.8,26.7c0.6-0.3,1.4-0.3,1.9-0.2c0.6,0.1,1.1,0.4,1.6,0.6c-0.8,0.4-1.3,0.4-1.8,0.2
		C36.9,27.1,36.6,26.8,35.8,26.7L35.8,26.7z"/>
	<path fill="#FFFFFF" d="M43.6,41.9c0.1-0.4,0.3-1.2,0.8-1.6C44.7,40,45,40,45.1,40c-0.1,0.4-0.2,0.9-0.7,1.3
		C43.9,41.6,43.9,41.6,43.6,41.9L43.6,41.9z"/>
	<path fill="#FFFFFF" d="M46.4,38.9c-0.2,0.2-0.1,1.3,1.2,1.8c0-0.4-0.3-0.8-0.6-1C46.7,39.4,46.5,39.1,46.4,38.9L46.4,38.9z"/>
	<path fill="#FFFFFF" d="M49.4,38.4c-0.3,0.2-1.5-0.3-1.6-2.4c0.4,0.2,0.7,0.7,0.9,1.3C49,37.9,49.2,38.3,49.4,38.4L49.4,38.4z"/>
	<path fill="#FFFFFF" d="M43.9,37.5c0.4-0.3,0.9-0.4,1.2-0.4c0.4,0,0.8,0.2,1.1,0.2c-0.5,0.3-0.8,0.4-1.2,0.4
		C44.7,37.6,44.4,37.4,43.9,37.5L43.9,37.5z"/>
	<path fill="#FFFFFF" d="M44.6,31.7c0.5,0.2,1.1,0.2,1.5,0c0.5-0.2,0.9-0.5,1.3-0.6c-0.6-0.2-1-0.2-1.4,0
		C45.4,31.3,45.2,31.6,44.6,31.7L44.6,31.7z"/>
	<path fill="#FFFFFF" d="M47.5,32.9c0.5,0.2,1.1,0.2,1.5,0c0.5-0.2,0.9-0.5,1.3-0.6c-0.6-0.2-1-0.2-1.4,0
		C48.3,32.4,48.1,32.7,47.5,32.9L47.5,32.9z"/>
	<path fill="#FFFFFF" d="M41.7,30.5c0.4,0.2,0.9,0.2,1.3,0.2c0.4-0.1,0.9-0.4,1.2-0.4c-0.5-0.3-0.9-0.3-1.3-0.2
		C42.5,30.2,42.3,30.5,41.7,30.5L41.7,30.5z"/>
	<path fill="#FFFFFF" d="M50.8,34.1c0.5,0,1-0.4,1.3-0.6c0.3-0.4,0.6-0.9,0.9-1.2c-0.6,0.1-1,0.3-1.3,0.6
		C51.4,33.3,51.3,33.7,50.8,34.1L50.8,34.1z"/>
	<path fill="#FFFFFF" d="M53.4,34.5c0.5-0.1,1-0.5,1.2-0.9c0.3-0.4,0.5-0.9,0.7-1.3c-0.6,0.2-1,0.4-1.2,0.9
		C53.8,33.6,53.8,34,53.4,34.5L53.4,34.5z"/>
	<path fill="#FFFFFF" d="M52.8,37c-0.5-0.1-1-0.4-1.3-0.8c-0.3-0.4-0.6-0.9-0.8-1.2c0.6,0.1,1,0.4,1.2,0.7
		C52.3,36.2,52.4,36.6,52.8,37L52.8,37z"/>
	<path fill="#FFFFFF" d="M56,35.9c-0.5,0.1-1,0-1.3-0.1c-0.4-0.2-0.8-0.5-1.1-0.7c0.6-0.2,1-0.2,1.4,0.1
		C55.3,35.3,55.4,35.7,56,35.9L56,35.9z"/>
	<path fill="#FFFFFF" d="M37.6,31.9c0.2,0.3,0.4,1.1,0.3,1.6c-0.1,0.4-0.2,0.5-0.3,0.6c-0.1-0.3-0.4-0.8-0.2-1.3
		C37.6,32.3,37.6,32.3,37.6,31.9L37.6,31.9z"/>
	<path fill="#FFFFFF" d="M43,32.5c0.3,0.2,0.9,0.8,1,1.3c0.1,0.4,0,0.6,0,0.8c-0.3-0.2-0.7-0.6-0.7-1.1C43.2,32.9,43.2,32.9,43,32.5
		L43,32.5z"/>
	<path fill="#FFFFFF" d="M39,34.5c-0.1,0.3-0.5,1.1-1,1.3C37.6,36,37.4,36,37.3,36c0.2-0.3,0.4-0.8,0.9-1
		C38.7,34.8,38.7,34.8,39,34.5L39,34.5z"/>
	<path fill="#FFFFFF" d="M39,34.5c0,0.3,0.2,1.2,0.5,1.6c0.3,0.3,0.5,0.4,0.6,0.4c-0.1-0.4-0.1-0.9-0.5-1.3
		C39.3,34.9,39.2,34.9,39,34.5L39,34.5z"/>
	<path fill="#FFFFFF" d="M49.9,25.1c0.5,0.1,1.1-0.2,1.4-0.4c0.4-0.3,0.7-0.7,1-0.9c-0.7-0.1-1.1,0.1-1.4,0.4
		C50.7,24.4,50.5,24.8,49.9,25.1L49.9,25.1z"/>
	<path fill="#FFFFFF" d="M52.1,25.3c0.6-0.1,1.1-0.5,1.4-0.8c0.4-0.4,0.7-0.9,0.9-1.2c-0.7,0.1-1.1,0.4-1.4,0.8
		C52.7,24.5,52.6,24.9,52.1,25.3L52.1,25.3z"/>
	<path fill="#FFFFFF" d="M52.9,26.1c0.5-0.3,1.2-0.4,1.6-0.3c0.5,0.1,1.1,0.3,1.5,0.4c-0.6,0.3-1.1,0.4-1.6,0.3
		C53.9,26.4,53.6,26.1,52.9,26.1L52.9,26.1z"/>
	<path fill="#FFFFFF" d="M48.1,26.7c0.5-0.1,1,0.2,1.2,0.5c0.3,0.4,0.5,0.9,0.7,1.2c-0.6,0-1-0.2-1.2-0.5S48.6,27.1,48.1,26.7
		L48.1,26.7z"/>
	<path fill="#FFFFFF" d="M51.2,18c0.5,0,1-0.4,1.3-0.7c0.3-0.4,0.6-0.9,0.9-1.1c-0.6,0.1-1,0.3-1.3,0.6C51.8,17.2,51.7,17.6,51.2,18
		L51.2,18z"/>
	<path fill="#FFFFFF" d="M50.6,18.1c0.3-0.4,0.3-1,0.2-1.4c-0.1-0.5-0.5-1-0.6-1.4c-0.3,0.5-0.3,0.9-0.2,1.3
		C50.2,17.1,50.5,17.5,50.6,18.1L50.6,18.1z"/>
	<path fill="#FFFFFF" d="M53.5,17.2c-0.1,0.8-0.2,0.9-0.4,1.2c-0.2,0.3-0.7,0.7-1.2,0.8c0.1-0.6,0.4-0.9,0.7-1.2
		C52.9,17.7,53.2,17.7,53.5,17.2L53.5,17.2z"/>
	<path fill="#FFFFFF" d="M52.3,15.2c0.3-0.4,0.3-1,0.2-1.4c-0.1-0.5-0.4-1-0.5-1.4c-0.3,0.5-0.4,0.9-0.2,1.3
		C52,14.3,52.3,14.6,52.3,15.2L52.3,15.2z"/>
	<path fill="#FFFFFF" d="M47.6,14.8c0.4,0.5,0.6,1,0.6,1.5c0,0.5-0.1,0.9-0.2,1.3c-0.4-0.6-0.6-0.9-0.5-1.4
		C47.5,15.7,47.6,15.6,47.6,14.8L47.6,14.8z"/>
	<path fill="#FFFFFF" d="M53.3,20.8c-0.5,0.1-1,0.2-1.3,0c-0.4-0.2-0.6-0.4-0.9-0.5c0.6-0.2,0.9-0.2,1.2,0
		C52.7,20.5,52.8,20.6,53.3,20.8L53.3,20.8z"/>
	<path fill="#FFFFFF" d="M16.6,22c-0.2-0.1-0.3-0.1-0.4-0.2L16.6,22L16.6,22z"/>
	<path fill="#FFFFFF" d="M28.7,41.2c-0.5,0-1.8,0.6-2.2,0.9c-1,0-1.3,0-1.8,0.2c-0.3,0.1-0.9,0.2-1.3,0.2c0.2,0.2,0.4,0.3,0.6,0.4
		c-0.4,0.2-0.4,0.4-0.6,0.4l0.1,0c2.1-0.3,2.7-0.7,3.1-0.9c0.5,0,1.9-0.3,2.3-0.6s0.8-0.2,1.5-1C29.5,41,28.7,41.2,28.7,41.2
		L28.7,41.2z M25.5,42.6c-0.3,0.1-1,0.4-1.5,0.5c0,0,0.2-0.1,0.3-0.2c0,0-0.3,0-0.4-0.2c0.2,0,0.4,0,0.7-0.1
		c0.4-0.1,1.1-0.2,1.5-0.2C25.9,42.4,25.8,42.4,25.5,42.6L25.5,42.6z M27.1,42.1c0.3-0.2,1.3-0.7,2.2-0.8
		C28.9,41.6,28.1,41.9,27.1,42.1L27.1,42.1z"/>
	<path fill="#FFFFFF" d="M44.2,32.4c0.2,0.1,1.9,0.9,2.4,2.6c0.3,1.2-0.1,3.2-0.8,4l0.1,0.1c0.8-0.8,1.3-2.9,0.9-4.1
		c-0.5-1.8-1.6-2.3-1.8-2.3L44.2,32.4L44.2,32.4z"/>
	<path fill="#FFFFFF" d="M15.3,37.2c0.1,0.1,0.1,0.2,0.2,0.2c0,0,0.2,0.1,0.2,0.1c-1.7-2,0.8-4.8,0.9-4.9L16,32.8
		C14.9,34.2,14.5,36.1,15.3,37.2L15.3,37.2z"/>
	<path fill="#FFFFFF" d="M37.5,43.1c-0.7,0-2.2-0.6-2.9-0.8c-0.2-0.2-0.7-0.7-1.6-1.1c1.5-0.2,0.9-1.6,0.6-1.8
		c-0.3-0.2-1.1-0.6-1.3-0.6c-0.1,0-0.4,0.3-0.7,0.5c-0.1-0.3-0.1-0.6-0.2-0.7H31c0.1,0.2,0.2,0.7,0.3,1.1c-0.3,0.2-0.5,0.4-0.6,0.5
		c-0.1-0.1-0.3-0.3-0.5-0.6c0.1-0.4,0.2-0.8,0.3-1.1l-0.4,0c-0.1,0.3-0.2,0.5-0.3,0.8c-0.3-0.3-0.7-0.6-0.9-0.6
		c-0.5,0-2.7,2.1-0.2,2.8c0,0,0.1,0,0.1,0c-0.5,1-1.1,1.8-1.4,2.3c-0.1,0.1-0.2,0.2-0.2,0.3c-0.1,0.1,0.5,0.2,0.7,0.1
		c0.4-0.4,1.1-1.5,1.7-3c0.4-0.1,0.7-0.3,0.8-0.3c-1.1,1.6-0.9,2.1-0.8,2.6c0,0.6,1.1,0.4,1.8,0.3c0.7-0.1,1,0.1,1.2-0.6
		c0.3,0.4,0.7,0.8,1.5,0.8c-0.5-0.6-1.2-1.9-1.6-2.6c0.3,0.4,0.4,0.7,2,1c0.6,0.6,2.3,1.2,3.1,1.2c-0.2,0-0.2-0.1-0.7-0.4
		C37.1,43.3,37.1,43.4,37.5,43.1L37.5,43.1z M33.7,39.7c0.1,0.3,0.5,1.1-0.4,1.3c0.2-0.3,0.4-0.4,0.3-0.7c-0.1-0.3-0.1-0.5-0.2-0.8
		C33.5,39.6,33.7,39.7,33.7,39.7L33.7,39.7z M31.7,41.2c0.1,0.2,0.1,0.4,0.2,0.6c0,0-0.6-0.5-0.8-0.9C31.3,40.9,31.6,41.1,31.7,41.2
		L31.7,41.2z M31.4,40.2c0,0.2,0.1,0.5,0.1,0.5c-0.2,0-0.5-0.2-0.5-0.2C31.2,40.4,31.4,40.2,31.4,40.2L31.4,40.2z M28.7,41.2
		c0.1,0-0.7,0.1-1-0.7c-0.3-0.7,1-1.5,1.1-1.6c0,0,0.1,0.1,0.2,0.2c-0.2,0-1,0.6-1.1,1.1c0,0.4,0.6,0.8,1,0.9
		C29,41.1,28.7,41.2,28.7,41.2L28.7,41.2z M27.8,43.9c-0.2,0.1-0.2,0-0.2,0c0.2-0.4,1.4-2.2,1.5-2.4l0.1,0
		C29.1,41.9,28,43.8,27.8,43.9L27.8,43.9z M29.2,40.7c-0.4,0-0.7-0.2-0.9-0.4c-0.3-0.3,0.4-0.8,0.9-1c0.1,0,0.3,0.2,0.5,0.3
		C29.5,40.1,29.4,40.4,29.2,40.7L29.2,40.7z M29.7,40.7c0.1-0.2,0.2-0.5,0.3-0.7c0.1,0.2,0.3,0.3,0.3,0.4
		C30.1,40.6,29.9,40.7,29.7,40.7L29.7,40.7z M29.6,42.3c0.1-0.3,0.3-0.7,0.5-0.9c-0.1,0.2-0.3,1-0.4,1.2
		C29.6,42.3,29.6,42.3,29.6,42.3L29.6,42.3z M31.7,43.5c-0.2,0.1-0.5,0-0.7,0c-0.2,0-0.5,0.1-0.8,0.1c-0.2,0-0.5,0-0.6-0.2
		c0-0.2,0.1-0.3,0.1-0.3c0.1,0.1,0.2,0.1,0.3,0.1s0.4-0.1,0.7-0.1c0.3,0,0.6,0,0.8,0s0.3,0,0.4-0.1C32,43.4,32,43.5,31.7,43.5
		L31.7,43.5z M30.9,43.1c-0.2,0-0.5,0-1,0c-0.2-0.2,0.6-1.8,0.7-2.1c0.4,0.3,1.2,1.1,1.4,1.6C32,43,31.1,43.1,30.9,43.1L30.9,43.1z
		 M33.5,43.8c-0.4-0.2-0.8-0.7-1.1-1.4c-0.2-0.7-0.3-1-0.3-1c0,0,0,0,0.1,0C32.3,41.9,33.2,43.5,33.5,43.8L33.5,43.8z M32.1,40.9
		c-0.2-0.4-0.2-0.9-0.2-0.9c0.2-0.2,0.5-0.4,0.6-0.5c0.3,0,0.4,0,0.6,0.1c0.2,0.3,0.4,0.7,0.3,0.9C33.2,40.7,32.3,40.9,32.1,40.9
		L32.1,40.9z M32.8,41.7c-0.5-0.5-0.1-0.3-0.1-0.3c0.3,0.1,1,0.5,1.3,0.7C33.5,42.1,33.3,42.2,32.8,41.7L32.8,41.7z M37,43.5
		c-0.2,0.1-0.7-0.1-1-0.2c-0.3-0.1-0.4-0.1-0.9-0.5c-0.2-0.2,1.1,0.1,1.5,0.3c0.4,0.1,0.5,0.1,0.6,0.1c-0.3,0.1-0.5,0.2-0.7,0.1
		C36.8,43.4,36.8,43.4,37,43.5L37,43.5z"/>
	<path fill="#FFFFFF" d="M2.4,27.3c0,0.4,0.1,0.8,0.4,1.2c0.4,0.5,1.3,0.8,2.2,0.8h20.3c1.2,0,2.7,0.4,2.8,2.2
		c0,0.7-0.3,1.1-0.6,1.3c-0.4,0.3-1.1,0.4-1.5,0.1c-0.2-0.1-0.5-0.4-0.5-0.8c0-0.4,0.1-0.6,0.4-0.7c0.3-0.1,0.6,0,0.8,0.2
		c0.1,0.1,0.2,0.1,0.3,0.1c0.1-0.1,0.1-0.2,0.1-0.3c-0.2-0.4-0.8-0.5-1.2-0.4c-0.4,0.2-0.7,0.6-0.7,1.2c0,0.5,0.3,0.9,0.7,1.2
		c0.6,0.3,1.4,0.2,1.9-0.1c0.5-0.4,0.8-1,0.8-1.7c-0.1-1.7-1.2-2.6-3.2-2.6H5c-0.8,0-1.5-0.3-1.9-0.7c-0.2-0.3-0.3-0.6-0.3-0.9
		c0.1-0.9,0.7-1,1-1c0.2,0,0.4,0.1,0.5,0.3c0.1,0.1,0.1,0.2,0.1,0.4c0,0.2-0.1,0.2-0.2,0.3c-0.1,0-0.2,0.2-0.1,0.3
		c0,0.1,0.2,0.2,0.3,0.1c0.1,0,0.4-0.2,0.4-0.6c0-0.3,0-0.5-0.2-0.7C4.5,26.2,4.2,26,3.8,26C3.2,26,2.5,26.3,2.4,27.3L2.4,27.3z"/>
	<path fill="#FFFFFF" d="M59.1,27.3c0,0.4-0.1,0.8-0.4,1.2c-0.5,0.5-1.3,0.8-2.2,0.8H36.4c-1.2,0-2.7,0.4-2.8,2.2
		c0,0.7,0.4,1.3,0.7,1.5c0.5,0.3,1.1,0.4,1.5,0.1c0.2-0.1,0.5-0.4,0.5-0.8c0-0.4-0.1-0.6-0.4-0.7c-0.3-0.1-0.6,0-0.7,0.2
		c-0.1,0.1-0.2,0.1-0.3,0.1c-0.1-0.1-0.1-0.2-0.1-0.3c0.2-0.4,0.7-0.5,1.2-0.4c0.4,0.2,0.7,0.6,0.7,1.2c0,0.5-0.3,0.9-0.7,1.2
		c-0.6,0.3-1.4,0.2-1.9-0.1c-0.5-0.4-0.9-1.1-0.9-1.9c0.1-1.7,1.2-2.6,3.2-2.6h20.1c0.8,0,1.5-0.3,1.9-0.7c0.2-0.3,0.3-0.6,0.3-0.9
		c-0.1-0.9-0.7-1-1-1c-0.2,0-0.4,0.1-0.5,0.3c-0.1,0.1-0.1,0.2-0.1,0.4c0,0.2,0.1,0.2,0.2,0.3c0.1,0,0.2,0.2,0.1,0.3
		s-0.2,0.2-0.3,0.1c-0.1,0-0.4-0.2-0.4-0.6c0-0.3,0-0.5,0.2-0.7c0.2-0.2,0.5-0.4,0.8-0.4C58.3,26,59,26.3,59.1,27.3L59.1,27.3z"/>
	<path fill="#FFFFFF" d="M52.6,26.4l0.1-0.2c-1.9-1-3.5-1.6-5.9-2c-0.4-0.1-0.7-0.1-1-0.2c0.1-0.4,0.1-0.8,0.2-1.1c0,0,0-0.1,0-0.1
		c0.5-0.2,0.9-0.4,1.4-0.6c0.5,0.1,1.1,0.4,1.6,0.4c0.6-0.1,0.6-0.3,0.6-1.3c0-0.1,0-0.2,0-0.3c0.5-0.4,1-0.8,1.2-1.3l-0.3-0.1
		c-0.3,0.4-0.6,0.7-1,1c-0.3-0.8-1.1-1.7-1.9-2.8c-1-1.4-3.4-2.1-4.3-2.2c-1.4-0.2-2.6,0.3-3.4,0.6c-0.9-0.6-0.5-2.2,0-3.3
		c0.4-0.8,0.7-1.5,0.8-2.3c0.2-1,0.2-1.8,0-2.2C40.5,8,40,7.8,39.7,7.8c-0.4,0.1-0.7,0.3-0.9,0.9c-0.2,0.2-0.7,0.4-1,0.5
		c-0.1,0.1,0,0.4,0.4,0.3c0.3-0.1,0.7-0.1,1.3,0c0,1-0.2,1.4-1.5,3c-0.5,0.7-0.8,1.4-1,2.2v-1.6h-0.2h-12v0.2
		c-0.2,0.2-0.3,0.2-0.3,0.2c-0.1-0.4-0.1-0.9-0.3-1.4c-0.2-0.5-0.2-0.9,0-1.1c0.1-0.2,0.5-0.2,0.7-0.2c0.2,0,0.4,0.2,0.7-0.1
		c0.2,0,0.5-0.2,0.5-0.5c0.1-0.3-0.2-0.3-0.3-0.5c-0.2-0.1-0.5-0.5-0.7-0.6c0-0.1,0-0.2,0-0.3c-0.1-0.2-0.4-0.4-0.6-0.5
		c-0.2-0.1-0.2-0.2-0.2-0.2c0.1-0.5,0.5-1.4-0.2-1.7c-0.3,0.5-1,1.4-1,1.4c-0.5-0.5-1-1-1.7-1c0,0.7,0.1,1.3,0.8,2.1
		c-0.2,0.8-0.4,1.7-0.4,2.5c-0.3,0.8-0.8,1.9-1.9,3.3c-1,0.8-2.8,2.6-3.7,3.9c-0.5,0.7-0.7,1.6-0.7,2.4c-0.4-0.2-1-0.5-1.5-0.8
		c-0.7-0.4-1.4-0.8-1.7-0.9c-0.1,0-0.1,0-0.2-0.1c-0.6-0.5-0.8-0.9-0.8-1.2c0.2-0.4,0.4-0.8,0.6-1.2c0.1-0.4,0.2-1.1,0-1.7
		c-0.1,0.7-0.4,1-0.6,1.4c-0.2,0.4-0.2,0.8-0.1,1.4c-0.1,0.3,0,0.8,0.5,1.3c-0.8-0.2-1.9-0.3-2.5-0.1c-0.2,0-0.5,0-0.8,0
		c-0.5-0.1-1,0.1-1.4,0.5c1,0.8,2,0.1,2.4-0.3c0.9-0.3,2.4,0.1,3,0.3c0.2,0.1,0.8,0.4,1.4,0.8c-0.9-0.1-1.5,0.3-1.8,0.7
		c-0.5,0.3-0.8,0.9-0.6,1.5c0.1,0.5,0.5,0.9,0.6,1c0-0.4,0.2-0.9,0-1.6c-0.1-0.3-0.1-0.5,0-0.7c0.3-0.5,0.9-1,2.2-0.8l0,0
		c0.5,0.3,1.1,0.6,1.5,0.9c0,0.7,0,1.2,0,1.5c0,0.2,0,0.7,0,1.1c-0.9,0-1.9,0.1-3.2,0.7c-1.6,0.7-2.4,0.9-3.4,0.8
		c-0.1,0-0.1,0-0.1,0.1c0,0.1,0,0.1,0.1,0.1c1,0.1,2.1-0.1,3.7-0.9c1.2-0.5,1.9-0.5,2.7-0.4c-0.5,0.7-1.1,1.5-1.7,1.9
		c-0.4,0.1-0.7,0.1-1.1,0.2c-0.5,0.1-0.9,0.4-1.3,1c0.4-0.1,0.9-0.1,1.4-0.3c0.2-0.1,0.6-0.3,0.9-0.5c0.7-0.4,1.4-1.3,2-2
		c0,0.3,0,0.6,0,0.7c-0.1,1-0.8,2.1-2.9,2.3c-2.1,0.2-1.9,0.2-6.9,0.2c-1.2,0-0.7,0.9-0.2,0.9c0.8,0,8,0,8.9,0
		c2.2,0,3.3-1.9,3.8-3.4c0.5-1.5,1.2-1.3,1.4-1.4c0.1,0.5-0.1,1.6-0.3,2.2c-0.2,0.6-0.5,1.8-0.4,2.1c0.1,0.3,0.1,0.4,0.7,0.5
		c0.8,0,5.5,0,6,0s1,0.2,1.2,0.2c0.2,0.1,0.8,0.1,0.4-0.5c-0.4-0.6-1.1-0.8-1.7-0.7c-0.6,0-2.5,0.2-3.4,0.2c-0.9,0-1.5,0-1.4-1.2
		c0.1-0.7,0.4-1.6,0.6-2.4c2,1.1,4.1,2.2,5.1,3c1.9,1.6,3.1,3.5,3.7,5.9c-0.7-1.2-1.8-2.1-3.3-2.7c-1.9-0.8-3.8-0.9-6.2,0
		c-0.3-0.2-0.9-0.6-1.3-0.7c-0.3-0.2-1.4-0.2-1.8,0.1c0.6,0.2,1.1,0.5,1.4,0.7c0.2,0.1,0.5,0.2,0.8,0.2c-0.4,0.2-0.8,0.3-1.3,0.5
		l-0.9,0.4c-0.3-0.3-0.6-0.7-1.3-0.7c-0.7,0-0.7,0-1.1-0.1c0.2,0.3,0.9,1,1.6,1c0.3,0,0.5,0,0.6,0l-0.6,0.3
		c-0.7,0.3-1.3,0.6-1.8,0.9c-1.5,0.1-2.3-0.3-2.8-0.7c-0.1-0.2-0.2-0.4-0.5-0.7c-0.5-0.5-1.4-0.6-1.8-0.5c0.4,0.2,0.4,0.3,0.8,0.8
		c0.3,0.4,0.8,0.5,1.1,0.5l0.1,0c0.4,0.3,1,0.8,2.3,0.8c-1.9,0.7-3.6,0.9-7,0.3c0.1,0.2,1,0.4,1.6,0.5c4,0.5,5.5-0.3,8.1-1.6
		l1.7-0.8c0,0,0.1,0,0.1,0c-0.3,0.4-1,1.3-1,2c-0.1,0.6,0,0.9,0.1,1.1c0.3-0.4,0.8-0.9,0.8-1.7c0-0.8,0-0.9,0.2-1.4
		c1.7-0.8,3.3-1.2,4.8-1.2c-0.4,0.3-0.9,0.8-1.3,1.7c-0.3,0.8-0.3,1.8,0.2,2.8c0,0,0,0.1-0.1,0.1c-0.3,0.3-0.7,0.7-0.8,1.1
		c-0.1,0.4-0.1,0.6,0,0.7c0.2-0.2,0.7-0.6,0.8-1.1c0.1-0.3,0.1-0.5,0.1-0.6c0-0.1,0.1-0.1,0.1-0.1c0,0,0,0,0,0
		c0,0.2,0.1,0.7,0.4,0.9c0-0.1,0-0.1,0-0.2l0,0c0,0,0,0,0,0c0-0.3-0.1-0.5-0.3-0.7c0,0,0-0.1,0-0.1l0.2,0.1c0.1,0.1,0.2,0.2,0.4,0.3
		c0.4,0.3,0.9,0.3,1.2,0.3c0-0.1-0.1-0.3-0.4-0.5c-0.3-0.2-1-0.3-1.4-0.3l-0.1,0l-0.1,0c-0.3-1-0.3-1.9-0.1-2.6
		c0.4-1,1.2-1.5,1.7-1.7c0.1,0,0.2,0,0.4,0c-0.7,0.3-0.9,1-1,1.3l0.2,0.1c0.1-0.6,0.5-1.3,1.6-1.3c0.5,0.1,0.9,0.2,1.3,0.4
		c1.8,0.7,3,2,3.7,3.7c0,0.2,0,0.4,0.1,0.6c0,0.1,0,0.2,0,0.4l0.6,0c0,0,0-0.1,0-0.1l0.2,0c0.1-0.3,0.1-0.7,0.2-1
		c0.4-1.2,1.3-2.5,3.2-3.3c0.6-0.2,1.2-0.4,1.8-0.5c0.5,0.1,1.1,0.4,1.3,1.7l0.1,0c-0.1-1-0.4-1.5-0.8-1.7c0,0,0.1,0,0.1,0
		c0.8,0.3,2,0.9,1.9,4.1c0,0.2-0.1,0.4-0.1,0.6c-0.1,0.3,0.2,0.7,0.2,0.7c0-0.1,0-0.4,0-0.7c0-0.2,0.1-0.4,0.1-0.6
		c0.1-2.7-0.6-3.7-1.3-4.1c0.2,0,0.4,0,0.6,0.1c1.2,0.2,2.5,0.6,3.7,1c0.4,0.3,1.2,1.2,1.3,1.5l0.2,0c-0.1-0.3-0.6-0.9-1-1.3
		c0.8,0.3,1.5,0.6,2.1,0.8l1,0.5c1.4,0.6,4.3,1.8,7.1,1.9l0-0.1c-4-0.6-5.7-1.4-7-2.2l-0.8-0.4c-1.5-0.7-4.1-1.7-6.3-2.1
		c-1.2-0.2-2.8,0-4,0.5c-1.2,0.5-2,1.2-2.5,1.9c0.5-1.8,1.3-3.4,2.6-4.6c1.7-1.6,4.1-2.6,5.8-3.2c0.3-0.1,0.6-0.1,1-0.2
		c-0.6,1.2-1.5,2.6-1.8,2.9c-0.4,0.4-0.6,0.5-0.9,0.6c-0.5,0.1-2.1,0.1-2.1,0.7H40c0.2-0.2,0.2-0.3,0.1-0.7c0-0.3,0.8-1.6,1.1-2.3
		c0.1-0.3,0.4-0.8,0.7-1.3c0.9-0.1,1.9-0.2,3.1-0.1c0,0.7,0,1.5-0.1,2.1c-0.1,0.9-0.3,1.1-0.8,1.4c-0.3,0.2-0.7,0.2-1.2,0.3
		c-0.4,0.1-1.1,0-1.1,0.6c0,0,2.7,0,3.3,0c0.3-0.4,0.3-0.4,0.4-2.1c0-0.7,0.1-1.4,0.2-2.1c0.4,0.2,0.8,0.6,0.8,0.6l0.2-0.2
		c-0.1-0.2-0.4-0.4-0.7-0.6c0.3,0,0.6,0.1,0.9,0.1C49.2,25,50.7,25.4,52.6,26.4L52.6,26.4z M25.2,20.1c0.3-0.1,0.6-0.3,0.6-1.1
		c0-0.7-0.3-1.3-0.6-1.7c0-1.9,0-3.6,0-3.8c0.3,0,11.1,0,11.4,0c0,0.4,0,8.6,0,8.6c0,0.6-0.2,1.5-0.7,1.9c-0.5,0.4-4.4,2.8-5,3.2
		c-0.6-0.4-4.5-2.8-5-3.2c-0.5-0.4-0.7-1.3-0.7-1.9C25.2,22.1,25.2,21.3,25.2,20.1L25.2,20.1z M32,29.1c-0.1,0.8-0.4,1.5-1.1,2.2
		c-0.8-0.8-1-1.6-1.1-2.2c0.2-0.3,0.3-0.7,0.2-1.2c-0.2-0.5-0.2-0.7-0.2-1c0.6,0.4,1.1,0.7,1.1,0.7l0.1,0.1l0.1-0.1
		c0.1,0,0.5-0.3,1.1-0.7c0,0.2-0.1,0.4-0.2,0.8C31.6,28.2,31.8,28.7,32,29.1L32,29.1z M24.1,15.7c0.3-0.6,0.5-0.7,0.7-0.8V17
		C24.4,16.7,23.8,16.3,24.1,15.7L24.1,15.7z M30.3,31.8c-0.7-2-1.9-3.5-3.7-4.9c-1.7-1.2-3.9-2.4-5.3-3c0.2-0.4,0.3-0.8,0.4-1
		c0.3-0.6,0.3-1.8,0.3-2.3c0.3-0.7,1-2,1.2-3c0.6,0.2,1.2,0.5,1.5,0.9v3.6c0,0.6,0.2,1.7,0.8,2.2c0.4,0.3,2.5,1.6,3.9,2.5
		c-0.2,0.4-0.5,1.1-0.4,1.7c0.1,0.4,0.2,0.6,0.3,0.8c0.1,0.6,0.4,1.3,1.2,2.2C30.5,31.6,30.4,31.7,30.3,31.8L30.3,31.8z M30.9,34
		c-0.1-0.6-0.3-1.3-0.5-1.9c0.1-0.1,0.3-0.3,0.4-0.4c0.2,0.2,0.3,0.4,0.6,0.6C31.2,32.9,31.1,33.4,30.9,34L30.9,34z M41.6,23.4
		c0,0.1-0.1,0.3-0.2,0.4l-1.9,0.7c-0.9,0.3-4,1.5-5.8,3.4c-1,1.1-1.7,2.4-2.3,4c-0.2-0.1-0.3-0.3-0.5-0.4c0.7-0.8,1.1-1.6,1.1-2.4
		c0.1-0.1,0.2-0.4,0.3-0.7c0.1-0.5-0.1-1.2-0.3-1.6c1.4-0.9,3.6-2.2,3.9-2.5c0.7-0.5,0.8-1.7,0.8-2.2v-3.8c0.4,1.1,1.6,2.1,2.6,2.5
		c0.7,0.5,1.2,0.5,2,0.4C42.1,21.7,42,22.2,41.6,23.4L41.6,23.4z M43.3,22.2c0.1-0.2,0.2-0.4,0-0.9c0.4,0,1,0.1,1.4,1
		c0.1,0.1,0.1,0.3,0.2,0.5c-0.9,0.3-1.7,0.5-2.3,0.7l0,0C42.9,22.9,43.2,22.3,43.3,22.2L43.3,22.2z M42.4,24l0.5-0.2
		c0.6-0.2,1.3-0.4,2.1-0.7c0,0.2,0.1,0.5,0.1,0.8C43.9,23.8,43.1,23.9,42.4,24L42.4,24z"/>
	<path fill="#FFFFFF" d="M42.9,34.3c-0.3-0.3-0.7-0.5-1.2-0.5c-0.7,0-1.1,0.2-1.3,0.7c-0.1,0.2-0.2,0.5-0.1,0.8
		c0,0.4,0.1,1.1,0.2,1.3c-1.1,0-2.4-0.3-3.5-0.5l-1.3-0.3l-0.5-0.1c-1.6-0.3-3-0.5-5.2-0.5c-2.6,0-5,0.4-5.9,0.6
		c-0.9,0.2-2,0.5-3,0.5c0-0.2,0.1-0.5,0.2-0.8l0.1-0.4c0,0,0,0,0,0c0-0.1,0-0.3,0-0.3c0-0.2-0.1-1-1.3-1.1c-0.5,0-1.5,0.2-1.6,1.2
		c0,0,0,0.2,0,0.2c0,0.3,0.1,0.8,0.2,1.4l0.2,0.8c0.1,0.3,0.1,0.6,0.1,0.9c0,0.3,0,0.7,0.2,1.1c0.3,1,1.6,0.8,2,0.8
		c0,0,1.4-0.1,2.8-0.5c1-0.3,3.6-0.9,6.8-0.8c2.6,0,4.8,0.6,5.8,0.8c0,0,2.8,0.7,4.3,0.5c1.2-0.1,1.4-0.8,1.5-1.3l0.1-0.4
		c0.1-0.4,0.2-0.9,0.3-1.2c0.2-0.5,0.3-1,0.5-1.7c0,0,0,0,0,0c0-0.1,0-0.2,0-0.3C43.3,34.9,43.1,34.6,42.9,34.3L42.9,34.3z
		 M18.9,35.1c0-0.9,1.2-0.9,1.2-0.9c0.8,0,0.9,0.5,1,0.7c0,0,0,0,0,0c0,0.1,0,0.3-0.2,0.4c-0.1,0.1-0.2,0.1-0.4,0.1
		c0.1-0.5,0.1-0.9,0.1-0.9l0-0.1l-0.1,0c-0.4-0.1-0.7,0-0.9,0.1c-0.1,0.1-0.2,0.2-0.3,0.4c0,0,0,0.1,0,0.1c0,0,0,0.1,0,0.1h0l0,0.2
		c0,0.2,0.1,0.6,0.1,0.8c-0.1-0.1-0.2-0.1-0.3-0.2C18.9,35.8,18.8,35.4,18.9,35.1L18.9,35.1z M20,35.8c0.1,0,0.1,0,0.2,0
		c0,0,0.4,0,0.6-0.1c-0.1,0.3-0.1,0.5-0.2,0.7c-0.1,0-0.2,0-0.3,0c-0.2,0-0.4,0-0.6-0.1c0-0.2-0.1-0.4-0.1-0.7
		C19.8,35.8,19.9,35.8,20,35.8L20,35.8z M19.7,35.2c0-0.1-0.1-0.1-0.1-0.2c0,0,0,0,0-0.1c0-0.1,0.1-0.1,0.1-0.2
		c0.1-0.1,0.4-0.1,0.6-0.1c0,0.2,0,0.5-0.1,0.8c0,0-0.1,0-0.1,0C19.9,35.5,19.7,35.4,19.7,35.2L19.7,35.2z M42.4,37.2
		c-0.1,0.2-0.2,0.8-0.3,1.2L42,38.8c-0.1,0.4-0.2,0.9-1.2,1c-1.5,0.2-4.2-0.5-4.2-0.5c-1.1-0.3-3.3-0.9-5.9-0.9
		c-3.3,0-5.9,0.6-6.9,0.9c-1.3,0.3-2.9,0.5-2.9,0.5c-0.7,0-1.4,0-1.5-0.6c-0.1-0.4-0.1-0.7-0.1-1c0-0.3,0-0.6-0.1-0.9L19,36.5
		c0-0.1,0-0.1,0-0.2c0.3,0.3,0.8,0.5,1.3,0.5c0.1,0,0.4,0,0.5,0c1-0.1,2.3-0.2,3.2-0.5c1-0.3,3.4-0.6,5.8-0.6c2.2,0,3.6,0.2,5.2,0.5
		l0.5,0.1l1.3,0.3c1.4,0.3,2.9,0.6,4.3,0.5c0.7-0.1,1.2-0.4,1.5-0.6C42.6,36.7,42.5,36.9,42.4,37.2L42.4,37.2z M41.8,36.2
		c0,0.1-0.1,0.2-0.1,0.3c-0.2,0-0.4,0.1-0.6,0.1c-0.2,0-0.2,0-0.4,0c0-0.1,0-0.4-0.1-0.7c0.1,0.1,0.2,0.2,0.4,0.3
		C41.4,36.3,41.6,36.3,41.8,36.2L41.8,36.2z M41.5,35.9c0-0.2,0-0.6,0.1-0.9c0.2,0,0.4,0,0.4,0.1c0,0,0.1,0.1,0.1,0.2
		c0,0,0,0.1,0,0.1c0,0.1-0.1,0.3-0.2,0.4C41.7,35.9,41.6,35.9,41.5,35.9L41.5,35.9z M42,36.4c0-0.1,0.1-0.2,0.1-0.3
		c0.1-0.3,0.2-0.5,0.2-0.6c0,0,0,0,0,0l0,0c0,0,0,0,0,0c0,0,0,0,0,0c0-0.3,0-0.5-0.1-0.6c-0.2-0.2-0.5-0.3-0.8-0.2l-0.1,0l0,0.1
		c-0.1,0.3-0.1,0.9,0,1.1c-0.2-0.1-0.4-0.2-0.5-0.3c-0.1-0.1-0.1-0.2-0.1-0.4c0-0.2,0-0.4,0.1-0.5c0.1-0.2,0.3-0.5,1-0.5
		c0.4,0,0.7,0.1,0.9,0.4c0.2,0.2,0.3,0.5,0.3,0.8C42.9,35.8,42.6,36.2,42,36.4L42,36.4z"/>
	<path fill="#FFFFFF" d="M23,38.9c-0.1,0-0.2,0-0.2-0.1L22,37.6c-0.1-0.1-0.1-0.2-0.2-0.3l0,0l0,0l-0.3,0l0,0c0,0.1-0.1,0.2-0.1,0.3
		L20.7,39c-0.1,0.2-0.2,0.2-0.3,0.2l0,0l0,0.2l0.9,0l0-0.2l-0.2,0c-0.1,0-0.1,0-0.1,0c0,0,0-0.1,0.1-0.2c0,0,0-0.1,0.1-0.1
		c0.1,0,0.8-0.1,0.8-0.1c0,0,0.1,0.2,0.1,0.2c0.1,0.1,0.1,0.2,0.1,0.2c0,0,0,0,0,0c0,0-0.1,0-0.2,0.1l0,0l0,0.1l0,0.1l1.2-0.2l0-0.2
		L23,38.9L23,38.9z M21.1,38.5c0.1-0.1,0.2-0.5,0.3-0.6c0.1,0.1,0.3,0.4,0.4,0.5C21.6,38.5,21.3,38.5,21.1,38.5L21.1,38.5z"/>
	<path fill="#FFFFFF" d="M25,36.8l0.1,0l0-0.2l0,0l-0.7,0.1l0,0.2l0.1,0c0.1,0,0.1,0,0.2,0.3l0.1,0.7c0.1,0.4-0.2,0.5-0.5,0.6
		c-0.2,0-0.5,0-0.6-0.3l-0.1-0.8c-0.1-0.3-0.1-0.3,0.1-0.4l0.1,0l0-0.2l-1.2,0.2l0,0.2l0.1,0c0.1,0,0.1,0,0.2,0.3l0.1,0.7
		c0.1,0.4,0.5,0.6,1.2,0.5c0.6-0.1,0.9-0.4,0.8-0.9l-0.1-0.8C24.8,36.9,24.8,36.9,25,36.8L25,36.8z"/>
	<path fill="#FFFFFF" d="M26.3,37.1c-0.3,0-0.5-0.1-0.5-0.2c0-0.2,0.2-0.3,0.4-0.3c0.3,0,0.5,0.1,0.6,0.3l0,0l0.2,0l-0.1-0.6l-0.2,0
		c0,0,0,0,0,0c0,0,0,0-0.1,0l-0.2,0c-0.1,0-0.2,0-0.3,0c-0.5,0.1-0.9,0.3-0.8,0.7c0,0.4,0.5,0.5,0.9,0.5c0.3,0,0.6,0.1,0.6,0.3
		c0,0.2-0.1,0.3-0.4,0.3c-0.3,0-0.6-0.1-0.7-0.3l0-0.1l-0.2,0l0.1,0.6l0.2,0l0,0c0,0,0,0,0,0l0.2,0c0.1,0,0.3,0,0.4,0
		c0.5-0.1,0.9-0.3,0.9-0.7C27.1,37.2,26.7,37.1,26.3,37.1L26.3,37.1z"/>
	<path fill="#FFFFFF" d="M29.5,36.1l-2.3,0.2l0,0.6l0.2,0v0c0-0.2,0.1-0.3,0.4-0.4c0,0,0.1,0,0.2,0c0,0.1,0.1,1.2,0.1,1.2
		c0,0.3,0,0.3-0.1,0.4l-0.2,0l0,0.2l1.2-0.1l0-0.2l-0.2,0c-0.1,0-0.1,0-0.1-0.3c0,0-0.1-1.1-0.1-1.2c0.1,0,0.2,0,0.2,0
		c0.3,0,0.4,0.1,0.5,0.3l0,0l0.2,0L29.5,36.1L29.5,36.1L29.5,36.1z"/>
	<path fill="#FFFFFF" d="M31.9,37.8c-0.1,0.1-0.1,0.1-0.1,0.1c-0.1,0,0-0.2,0-0.3c0-0.3-0.1-0.4-0.4-0.5c0.2-0.1,0.4-0.2,0.4-0.4
		c0-0.3-0.3-0.5-0.9-0.5h-1h-0.1v0.2H30c0.1,0,0.1,0,0.1,0.3v0.9c0,0.3,0,0.3-0.1,0.3h-0.1V38h1.1v-0.2h-0.1c-0.1,0-0.1,0-0.1-0.3
		c0,0,0-0.3,0-0.4c0.1,0,0.1,0,0.1,0c0.3,0,0.3,0.1,0.3,0.3c0,0.2,0,0.7,0.5,0.7c0.2,0,0.3-0.1,0.4-0.2l0-0.1L31.9,37.8L31.9,37.8
		L31.9,37.8z M30.7,36.9C30.7,36.9,30.7,36.9,30.7,36.9c0-0.1,0-0.6,0-0.6c0.1,0,0,0,0,0c0.2,0,0.4,0.1,0.4,0.3
		C31.1,36.7,31.1,36.9,30.7,36.9L30.7,36.9z"/>
	<path fill="#FFFFFF" d="M34.3,38c0,0-0.5-1.3-0.5-1.3c0-0.1-0.1-0.2-0.1-0.4l0,0l0,0l-0.3,0l0,0l0,0c-0.1,0.1-0.1,0.2-0.2,0.3
		l-0.8,1.1c-0.1,0.2-0.2,0.2-0.3,0.2l0,0l0,0.2l0.8,0.1l0-0.2l-0.1,0c-0.1,0-0.1,0-0.1-0.1c0,0,0-0.1,0.1-0.2c0,0,0.1-0.1,0.1-0.1
		c0,0,0.7,0.1,0.8,0.1c0,0,0.1,0.2,0.1,0.2c0,0.1,0.1,0.2,0.1,0.2l0,0c0,0-0.1,0-0.2,0l0,0l0,0l0,0.1l1.1,0.2l0-0.2l-0.1,0
		C34.3,38.3,34.3,38.1,34.3,38L34.3,38z M32.9,37.4c0.1-0.1,0.3-0.4,0.4-0.5c0,0.1,0.2,0.5,0.2,0.6C33.4,37.5,33,37.4,32.9,37.4
		L32.9,37.4z"/>
	<path fill="#FFFFFF" d="M36.4,38.3c-0.1,0.2-0.2,0.3-0.6,0.2c0,0-0.2,0-0.3-0.1c0-0.1,0.2-1.2,0.2-1.2c0.1-0.3,0.1-0.3,0.2-0.3
		l0.1,0l0-0.2l0,0l-1-0.2l0,0.2l0.1,0c0.1,0,0.1,0,0.1,0.4L35,38c-0.1,0.3-0.1,0.3-0.2,0.3l-0.1,0l0,0.2l1.8,0.4l0.1-0.6L36.4,38.3
		L36.4,38.3L36.4,38.3z"/>
	<path fill="#FFFFFF" d="M37.9,37.4l0-0.2l0,0l-1-0.2l0,0.2l0.1,0c0.1,0,0.1,0,0,0.4L37,38.5c-0.1,0.3-0.1,0.3-0.2,0.3l-0.1,0l0,0.2
		l1,0.2l0-0.2l-0.1,0c-0.1,0-0.1,0-0.1-0.4l0.1-0.8c0.1-0.3,0.1-0.3,0.2-0.3L37.9,37.4L37.9,37.4z"/>
	<path fill="#FFFFFF" d="M40.2,39.1c0,0-0.5-1.3-0.5-1.3c0-0.1-0.1-0.2-0.1-0.4l0,0l0,0l-0.3,0l0,0c-0.1,0.1-0.1,0.2-0.2,0.3
		c0,0-0.8,1.1-0.8,1.1C38.1,39,38,39,37.9,39l0,0l0,0.2l0.8,0.1l0-0.2l-0.1,0c-0.1,0-0.1,0-0.1-0.1c0,0,0-0.1,0.1-0.2
		c0,0,0.1-0.1,0.1-0.1c0,0,0.8,0.1,0.8,0.1c0,0,0.1,0.2,0.1,0.2c0,0.1,0.1,0.2,0.1,0.3l0,0c0,0-0.1,0-0.2,0l0,0l0,0.1l0,0.1l1.2,0.1
		l0-0.2l-0.1,0C40.3,39.3,40.3,39.2,40.2,39.1L40.2,39.1z M38.7,38.5c0.1-0.1,0.3-0.4,0.4-0.5c0,0.1,0.2,0.5,0.2,0.6
		C39.2,38.6,38.8,38.5,38.7,38.5L38.7,38.5z"/>
	<path fill="#FFFFFF" d="M13.1,31.5c0-0.2,0.1-0.3,0.3-0.3c0.2,0,0.3,0.2,0.3,0.3c0,0.2-0.1,0.3-0.3,0.3
		C13.3,31.9,13.1,31.7,13.1,31.5L13.1,31.5z"/>
	<path fill="#FFFFFF" d="M14.7,31.7c0,0.2-0.1,0.3-0.3,0.3c-0.2,0-0.3-0.2-0.3-0.3s0.1-0.3,0.3-0.3C14.5,31.3,14.7,31.5,14.7,31.7
		L14.7,31.7z"/>
	<path fill="#FFFFFF" d="M15.1,32.5c0,0.2-0.1,0.3-0.3,0.3c-0.2,0-0.3-0.2-0.3-0.3s0.1-0.3,0.3-0.3C14.9,32.2,15.1,32.3,15.1,32.5
		L15.1,32.5z"/>
	<path fill="#FFFFFF" d="M13.4,32.5c0-0.2,0.1-0.3,0.3-0.3c0.2,0,0.3,0.2,0.3,0.3c0,0.2-0.1,0.3-0.3,0.3
		C13.5,32.8,13.4,32.6,13.4,32.5L13.4,32.5z"/>
	<path fill="#FFFFFF" d="M17.9,30.8c0-0.2,0.1-0.3,0.3-0.3c0.2,0,0.3,0.2,0.3,0.3c0,0.2-0.1,0.3-0.3,0.3
		C18.1,31.2,17.9,31,17.9,30.8L17.9,30.8z"/>
	<path fill="#FFFFFF" d="M14.4,34.2c0,0.2-0.1,0.3-0.3,0.3c-0.2,0-0.3-0.2-0.3-0.3s0.1-0.3,0.3-0.3C14.3,33.9,14.4,34,14.4,34.2
		L14.4,34.2z"/>
	<path fill="#FFFFFF" d="M12.7,34.2c0-0.2,0.1-0.3,0.3-0.3c0.2,0,0.3,0.2,0.3,0.3c0,0.2-0.1,0.3-0.3,0.3
		C12.9,34.6,12.7,34.4,12.7,34.2L12.7,34.2z"/>
	<path fill="#FFFFFF" d="M13.1,35.1c0,0.2-0.1,0.3-0.3,0.3c-0.2,0-0.3-0.2-0.3-0.3c0-0.2,0.1-0.3,0.3-0.3
		C12.9,34.8,13.1,34.9,13.1,35.1L13.1,35.1z"/>
	<path fill="#FFFFFF" d="M13.6,35.1c0-0.2,0.1-0.3,0.3-0.3c0.2,0,0.3,0.2,0.3,0.3c0,0.2-0.1,0.3-0.3,0.3
		C13.8,35.5,13.6,35.3,13.6,35.1L13.6,35.1z"/>
	<path fill="#FFFFFF" d="M15.3,35.7c0-0.2,0.1-0.3,0.3-0.3s0.3,0.2,0.3,0.3s-0.1,0.3-0.3,0.3S15.3,35.9,15.3,35.7L15.3,35.7z"/>
	<path fill="#FFFFFF" d="M15.1,37.8c0,0.2-0.1,0.3-0.3,0.3s-0.3-0.2-0.3-0.3s0.1-0.3,0.3-0.3C15,37.4,15.1,37.6,15.1,37.8L15.1,37.8
		z"/>
	<path fill="#FFFFFF" d="M13.5,37.6c0-0.2,0.1-0.3,0.3-0.3c0.2,0,0.3,0.2,0.3,0.3s-0.1,0.3-0.3,0.3C13.6,37.9,13.5,37.8,13.5,37.6
		L13.5,37.6z"/>
	<path fill="#FFFFFF" d="M14.5,38.5c0,0.2-0.1,0.3-0.3,0.3c-0.2,0-0.3-0.2-0.3-0.3c0-0.2,0.1-0.3,0.3-0.3
		C14.3,38.2,14.5,38.3,14.5,38.5L14.5,38.5z"/>
	<path fill="#FFFFFF" d="M9.2,34.4c0-0.2,0.1-0.3,0.3-0.3s0.3,0.2,0.3,0.3c0,0.2-0.1,0.3-0.3,0.3S9.2,34.6,9.2,34.4L9.2,34.4z"/>
	<path fill="#FFFFFF" d="M9.4,33.4c0,0.2-0.1,0.3-0.3,0.3s-0.3-0.1-0.3-0.3c0-0.2,0.1-0.3,0.3-0.3C9.3,33,9.4,33.2,9.4,33.4
		L9.4,33.4z"/>
	<path fill="#FFFFFF" d="M8.3,34.9c0-0.2,0.1-0.3,0.3-0.3s0.3,0.2,0.3,0.3c0,0.2-0.1,0.3-0.3,0.3S8.3,35.1,8.3,34.9L8.3,34.9z"/>
	<path fill="#FFFFFF" d="M5.9,33.2c0-0.2,0.1-0.3,0.3-0.3s0.3,0.2,0.3,0.3c0,0.2-0.1,0.3-0.3,0.3S5.9,33.4,5.9,33.2L5.9,33.2z"/>
	<path fill="#FFFFFF" d="M5.4,33.9c0-0.2,0.1-0.3,0.3-0.3c0.2,0,0.3,0.1,0.3,0.3s-0.1,0.3-0.3,0.3C5.6,34.2,5.4,34.1,5.4,33.9
		L5.4,33.9z"/>
	<path fill="#FFFFFF" d="M5.6,32.9c0,0.2-0.1,0.3-0.3,0.3s-0.3-0.2-0.3-0.3c0-0.2,0.1-0.3,0.3-0.3S5.6,32.7,5.6,32.9L5.6,32.9z"/>
	<path fill="#FFFFFF" d="M4.5,33.1c0,0.2-0.1,0.3-0.3,0.3c-0.2,0-0.3-0.2-0.3-0.3c0-0.2,0.1-0.3,0.3-0.3C4.4,32.7,4.5,32.9,4.5,33.1
		L4.5,33.1z"/>
	<path fill="#FFFFFF" d="M4.4,33.8c0-0.2,0.1-0.3,0.3-0.3c0.2,0,0.3,0.1,0.3,0.3c0,0.2-0.1,0.3-0.3,0.3C4.6,34.1,4.4,34,4.4,33.8
		L4.4,33.8z"/>
	<path fill="#FFFFFF" d="M5.3,24.7c0-0.2,0.1-0.3,0.3-0.3c0.2,0,0.3,0.2,0.3,0.3c0,0.2-0.1,0.3-0.3,0.3C5.5,25.1,5.3,24.9,5.3,24.7
		L5.3,24.7z"/>
	<path fill="#FFFFFF" d="M6.1,24.1c0-0.2,0.1-0.3,0.3-0.3c0.2,0,0.3,0.2,0.3,0.3s-0.1,0.3-0.3,0.3S6.1,24.3,6.1,24.1L6.1,24.1z"/>
	<path fill="#FFFFFF" d="M7.7,24.2c0,0.2-0.1,0.3-0.3,0.3s-0.3-0.2-0.3-0.3s0.1-0.3,0.3-0.3S7.7,24,7.7,24.2L7.7,24.2z"/>
	<path fill="#FFFFFF" d="M7.4,25.1c0-0.2,0.1-0.3,0.3-0.3c0.2,0,0.3,0.2,0.3,0.3c0,0.2-0.1,0.3-0.3,0.3C7.5,25.4,7.4,25.2,7.4,25.1
		L7.4,25.1z"/>
	<path fill="#FFFFFF" d="M8.8,24.9c0,0.2-0.1,0.3-0.3,0.3c-0.2,0-0.3-0.2-0.3-0.3c0-0.2,0.1-0.3,0.3-0.3C8.7,24.6,8.8,24.7,8.8,24.9
		L8.8,24.9z"/>
	<path fill="#FFFFFF" d="M7.1,25c0,0.2-0.1,0.3-0.3,0.3c-0.2,0-0.3-0.2-0.3-0.3s0.1-0.3,0.3-0.3C6.9,24.7,7.1,24.8,7.1,25L7.1,25z"
		/>
	<path fill="#FFFFFF" d="M10,26.1c0,0.2-0.1,0.3-0.3,0.3c-0.2,0-0.3-0.2-0.3-0.3c0-0.2,0.1-0.3,0.3-0.3C9.9,25.8,10,26,10,26.1
		L10,26.1z"/>
	<path fill="#FFFFFF" d="M10.6,26.1c0-0.2,0.1-0.3,0.3-0.3c0.2,0,0.3,0.2,0.3,0.3c0,0.2-0.1,0.3-0.3,0.3
		C10.7,26.4,10.6,26.2,10.6,26.1L10.6,26.1z"/>
	<path fill="#FFFFFF" d="M10.1,26.8c0-0.2,0.1-0.3,0.3-0.3c0.2,0,0.3,0.2,0.3,0.3c0,0.2-0.1,0.3-0.3,0.3
		C10.2,27.1,10.1,27,10.1,26.8L10.1,26.8z"/>
	<path fill="#FFFFFF" d="M9.1,27c0-0.2,0.1-0.3,0.3-0.3s0.3,0.2,0.3,0.3s-0.1,0.3-0.3,0.3S9.1,27.2,9.1,27L9.1,27z"/>
	<path fill="#FFFFFF" d="M13.6,25.9c0,0.2-0.1,0.3-0.3,0.3c-0.2,0-0.3-0.1-0.3-0.3s0.1-0.3,0.3-0.3C13.5,25.5,13.6,25.7,13.6,25.9
		L13.6,25.9z"/>
	<path fill="#FFFFFF" d="M12.8,21.2c0-0.2,0.1-0.3,0.3-0.3s0.3,0.2,0.3,0.3c0,0.2-0.1,0.3-0.3,0.3S12.8,21.4,12.8,21.2L12.8,21.2z"
		/>
	<path fill="#FFFFFF" d="M11.8,20.5c0,0.2-0.1,0.3-0.3,0.3c-0.2,0-0.3-0.2-0.3-0.3s0.1-0.3,0.3-0.3C11.7,20.1,11.8,20.3,11.8,20.5
		L11.8,20.5z"/>
	<path fill="#FFFFFF" d="M11,19.7c0,0.2-0.1,0.3-0.3,0.3s-0.3-0.2-0.3-0.3s0.1-0.3,0.3-0.3S11,19.5,11,19.7L11,19.7z"/>
	<path fill="#FFFFFF" d="M10.2,19.7c0,0.2-0.1,0.3-0.3,0.3c-0.2,0-0.3-0.2-0.3-0.3s0.1-0.3,0.3-0.3C10,19.3,10.2,19.5,10.2,19.7
		L10.2,19.7z"/>
	<path fill="#FFFFFF" d="M9.7,20.5c0-0.2,0.1-0.3,0.3-0.3c0.2,0,0.3,0.2,0.3,0.3s-0.1,0.3-0.3,0.3C9.9,20.8,9.7,20.7,9.7,20.5
		L9.7,20.5z"/>
	<path fill="#FFFFFF" d="M9,20.2c0-0.2,0.1-0.3,0.3-0.3c0.2,0,0.3,0.2,0.3,0.3s-0.1,0.3-0.3,0.3C9.1,20.6,9,20.4,9,20.2L9,20.2z"/>
	<path fill="#FFFFFF" d="M7.6,18.7c0-0.2,0.1-0.3,0.3-0.3c0.2,0,0.3,0.2,0.3,0.3S8.1,19,7.9,19C7.7,19,7.6,18.8,7.6,18.7L7.6,18.7z"
		/>
	<path fill="#FFFFFF" d="M10,16.2c0,0.2-0.1,0.3-0.3,0.3c-0.2,0-0.3-0.1-0.3-0.3c0-0.2,0.1-0.3,0.3-0.3C9.9,15.9,10,16,10,16.2
		L10,16.2z"/>
	<path fill="#FFFFFF" d="M10.8,16.3c0,0.2-0.1,0.3-0.3,0.3c-0.2,0-0.3-0.1-0.3-0.3c0-0.2,0.1-0.3,0.3-0.3
		C10.7,15.9,10.8,16.1,10.8,16.3L10.8,16.3z"/>
	<path fill="#FFFFFF" d="M11.1,15.3c0,0.2-0.1,0.3-0.3,0.3c-0.2,0-0.3-0.2-0.3-0.3s0.1-0.3,0.3-0.3C11,14.9,11.1,15.1,11.1,15.3
		L11.1,15.3z"/>
	<path fill="#FFFFFF" d="M10,15.4c0,0.2-0.1,0.3-0.3,0.3c-0.2,0-0.3-0.2-0.3-0.3c0-0.2,0.1-0.3,0.3-0.3C9.9,15,10,15.2,10,15.4
		L10,15.4z"/>
	<path fill="#FFFFFF" d="M8.6,14.6c0-0.2,0.1-0.3,0.3-0.3c0.2,0,0.3,0.2,0.3,0.3c0,0.2-0.1,0.3-0.3,0.3C8.7,15,8.6,14.8,8.6,14.6
		L8.6,14.6z"/>
	<path fill="#FFFFFF" d="M8.6,15.6c0-0.2,0.1-0.3,0.3-0.3c0.2,0,0.3,0.2,0.3,0.3c0,0.2-0.1,0.3-0.3,0.3C8.7,16,8.6,15.8,8.6,15.6
		L8.6,15.6z"/>
	<path fill="#FFFFFF" d="M12.1,18.2c0-0.2,0.1-0.3,0.3-0.3c0.2,0,0.3,0.2,0.3,0.3s-0.1,0.3-0.3,0.3C12.3,18.6,12.1,18.4,12.1,18.2
		L12.1,18.2z"/>
	<path fill="#FFFFFF" d="M13.1,19c0,0.2-0.1,0.3-0.3,0.3c-0.2,0-0.3-0.2-0.3-0.3s0.1-0.3,0.3-0.3C13,18.7,13.1,18.8,13.1,19L13.1,19
		z"/>
	<path fill="#FFFFFF" d="M14,19c0,0.2-0.1,0.3-0.3,0.3c-0.2,0-0.3-0.2-0.3-0.3c0-0.2,0.1-0.3,0.3-0.3C13.9,18.6,14,18.8,14,19L14,19
		z"/>
	<path fill="#FFFFFF" d="M13.1,18.1c0-0.2,0.1-0.3,0.3-0.3c0.2,0,0.3,0.2,0.3,0.3s-0.1,0.3-0.3,0.3S13.1,18.3,13.1,18.1L13.1,18.1z"
		/>
	<path fill="#FFFFFF" d="M13.8,25.3c0-0.2,0.1-0.3,0.3-0.3c0.2,0,0.3,0.2,0.3,0.3s-0.1,0.3-0.3,0.3C14,25.6,13.8,25.5,13.8,25.3
		L13.8,25.3z"/>
	<path fill="#FFFFFF" d="M22.1,26.2c0-0.2,0.1-0.3,0.3-0.3c0.2,0,0.3,0.2,0.3,0.3c0,0.2-0.1,0.3-0.3,0.3
		C22.2,26.5,22.1,26.4,22.1,26.2L22.1,26.2z"/>
	<path fill="#FFFFFF" d="M23.1,25.6c0,0.2-0.1,0.3-0.3,0.3c-0.2,0-0.3-0.2-0.3-0.3s0.1-0.3,0.3-0.3C23,25.2,23.1,25.4,23.1,25.6
		L23.1,25.6z"/>
	<path fill="#FFFFFF" d="M24,24.3c0,0.2-0.1,0.3-0.3,0.3c-0.2,0-0.3-0.2-0.3-0.3c0-0.2,0.1-0.3,0.3-0.3C23.9,24,24,24.1,24,24.3
		L24,24.3z"/>
	<path fill="#FFFFFF" d="M23.2,24c0,0.2-0.1,0.3-0.3,0.3s-0.3-0.2-0.3-0.3c0-0.2,0.1-0.3,0.3-0.3S23.2,23.8,23.2,24L23.2,24z"/>
	<path fill="#FFFFFF" d="M23.1,26.3c0-0.2,0.1-0.3,0.3-0.3c0.2,0,0.3,0.2,0.3,0.3c0,0.2-0.1,0.3-0.3,0.3
		C23.2,26.6,23.1,26.5,23.1,26.3L23.1,26.3z"/>
	<path fill="#FFFFFF" d="M44.5,38.9c0,0.2-0.1,0.3-0.3,0.3c-0.2,0-0.3-0.2-0.3-0.3s0.1-0.3,0.3-0.3C44.3,38.5,44.5,38.7,44.5,38.9
		L44.5,38.9z"/>
	<path fill="#FFFFFF" d="M44.8,39c0-0.2,0.1-0.3,0.3-0.3c0.2,0,0.3,0.2,0.3,0.3c0,0.2-0.1,0.3-0.3,0.3C44.9,39.4,44.8,39.2,44.8,39
		L44.8,39z"/>
	<path fill="#FFFFFF" d="M45.5,40.1c0-0.2,0.1-0.3,0.3-0.3c0.2,0,0.3,0.2,0.3,0.3c0,0.2-0.1,0.3-0.3,0.3
		C45.6,40.4,45.5,40.3,45.5,40.1L45.5,40.1z"/>
	<path fill="#FFFFFF" d="M46.3,41c0,0.2-0.1,0.3-0.3,0.3s-0.3-0.2-0.3-0.3c0-0.2,0.1-0.3,0.3-0.3S46.3,40.8,46.3,41L46.3,41z"/>
	<path fill="#FFFFFF" d="M46.6,38.2c0-0.2,0.1-0.3,0.3-0.3c0.2,0,0.3,0.2,0.3,0.3s-0.1,0.3-0.3,0.3C46.7,38.5,46.6,38.4,46.6,38.2
		L46.6,38.2z"/>
	<path fill="#FFFFFF" d="M48.1,38.3c0,0.2-0.1,0.3-0.3,0.3s-0.3-0.2-0.3-0.3s0.1-0.3,0.3-0.3S48.1,38.1,48.1,38.3L48.1,38.3z"/>
	<path fill="#FFFFFF" d="M46.9,37.3c0-0.2,0.1-0.3,0.3-0.3c0.2,0,0.3,0.2,0.3,0.3c0,0.2-0.1,0.3-0.3,0.3
		C47.1,37.6,46.9,37.5,46.9,37.3L46.9,37.3z"/>
	<path fill="#FFFFFF" d="M48.7,35.3c0,0.2-0.1,0.3-0.3,0.3c-0.2,0-0.3-0.2-0.3-0.3s0.1-0.3,0.3-0.3C48.5,34.9,48.7,35.1,48.7,35.3
		L48.7,35.3z"/>
	<path fill="#FFFFFF" d="M48.1,34.5c0,0.2-0.1,0.3-0.3,0.3s-0.3-0.2-0.3-0.3c0-0.2,0.1-0.3,0.3-0.3S48.1,34.3,48.1,34.5L48.1,34.5z"
		/>
	<path fill="#FFFFFF" d="M47.3,34c0,0.2-0.1,0.3-0.3,0.3c-0.2,0-0.3-0.2-0.3-0.3s0.1-0.3,0.3-0.3C47.1,33.7,47.3,33.8,47.3,34
		L47.3,34z"/>
	<path fill="#FFFFFF" d="M46.9,35.2c0-0.2,0.1-0.3,0.3-0.3c0.2,0,0.3,0.2,0.3,0.3s-0.1,0.3-0.3,0.3C47.1,35.5,46.9,35.3,46.9,35.2
		L46.9,35.2z"/>
	<path fill="#FFFFFF" d="M48.6,33.5c0,0.2-0.1,0.3-0.3,0.3S48,33.6,48,33.5c0-0.2,0.1-0.3,0.3-0.3S48.6,33.3,48.6,33.5L48.6,33.5z"
		/>
	<path fill="#FFFFFF" d="M52.5,34.2c0,0.2-0.1,0.3-0.3,0.3c-0.2,0-0.3-0.2-0.3-0.3s0.1-0.3,0.3-0.3C52.4,33.9,52.5,34.1,52.5,34.2
		L52.5,34.2z"/>
	<path fill="#FFFFFF" d="M53.4,33.6c0,0.2-0.1,0.3-0.3,0.3s-0.3-0.2-0.3-0.3c0-0.2,0.1-0.3,0.3-0.3S53.4,33.5,53.4,33.6L53.4,33.6z"
		/>
	<path fill="#FFFFFF" d="M54.9,33.7c0-0.2,0.1-0.3,0.3-0.3c0.2,0,0.3,0.1,0.3,0.3c0,0.2-0.1,0.3-0.3,0.3S54.9,33.9,54.9,33.7
		L54.9,33.7z"/>
	<path fill="#FFFFFF" d="M56,33.5c0-0.2,0.1-0.3,0.3-0.3c0.2,0,0.3,0.2,0.3,0.3c0,0.2-0.1,0.3-0.3,0.3C56.1,33.9,56,33.7,56,33.5
		L56,33.5z"/>
	<path fill="#FFFFFF" d="M56.3,34.5c0,0.2-0.1,0.3-0.3,0.3c-0.2,0-0.3-0.2-0.3-0.3c0-0.2,0.1-0.3,0.3-0.3
		C56.2,34.2,56.3,34.3,56.3,34.5L56.3,34.5z"/>
	<path fill="#FFFFFF" d="M54.6,34.5c0-0.2,0.1-0.3,0.3-0.3s0.3,0.2,0.3,0.3c0,0.2-0.1,0.3-0.3,0.3S54.6,34.7,54.6,34.5L54.6,34.5z"
		/>
	<path fill="#FFFFFF" d="M52.5,35.5c0-0.2,0.1-0.3,0.3-0.3s0.3,0.2,0.3,0.3s-0.1,0.3-0.3,0.3S52.5,35.7,52.5,35.5L52.5,35.5z"/>
	<path fill="#FFFFFF" d="M47.3,32.5c0,0.2-0.1,0.3-0.3,0.3c-0.2,0-0.3-0.2-0.3-0.3c0-0.2,0.1-0.3,0.3-0.3
		C47.1,32.2,47.3,32.4,47.3,32.5L47.3,32.5z"/>
	<path fill="#FFFFFF" d="M43.1,31.2c0-0.2,0.1-0.3,0.3-0.3c0.2,0,0.3,0.2,0.3,0.3s-0.1,0.3-0.3,0.3C43.3,31.5,43.1,31.4,43.1,31.2
		L43.1,31.2z"/>
	<path fill="#FFFFFF" d="M46.6,25.6c0-0.2,0.1-0.3,0.3-0.3c0.2,0,0.3,0.2,0.3,0.3s-0.1,0.3-0.3,0.3C46.7,25.9,46.6,25.7,46.6,25.6
		L46.6,25.6z"/>
	<path fill="#FFFFFF" d="M47.3,25.1c0-0.2,0.1-0.3,0.3-0.3c0.2,0,0.3,0.2,0.3,0.3c0,0.2-0.1,0.3-0.3,0.3S47.3,25.2,47.3,25.1
		L47.3,25.1z"/>
	<path fill="#FFFFFF" d="M48.1,26.1c0,0.2-0.1,0.3-0.3,0.3s-0.3-0.2-0.3-0.3c0-0.2,0.1-0.3,0.3-0.3S48.1,25.9,48.1,26.1L48.1,26.1z"
		/>
	<path fill="#FFFFFF" d="M48.4,25.9c0-0.2,0.1-0.3,0.3-0.3c0.2,0,0.3,0.2,0.3,0.3s-0.1,0.3-0.3,0.3C48.5,26.3,48.4,26.1,48.4,25.9
		L48.4,25.9z"/>
	<path fill="#FFFFFF" d="M50.2,26.2c0-0.2,0.1-0.3,0.3-0.3s0.3,0.2,0.3,0.3c0,0.2-0.1,0.3-0.3,0.3S50.2,26.3,50.2,26.2L50.2,26.2z"
		/>
	<path fill="#FFFFFF" d="M50.6,26.9c0-0.2,0.1-0.3,0.3-0.3c0.2,0,0.3,0.2,0.3,0.3c0,0.2-0.1,0.3-0.3,0.3
		C50.7,27.2,50.6,27.1,50.6,26.9L50.6,26.9z"/>
	<path fill="#FFFFFF" d="M52,26.6c0,0.2-0.1,0.3-0.3,0.3c-0.2,0-0.3-0.2-0.3-0.3c0-0.2,0.1-0.3,0.3-0.3C51.8,26.3,52,26.4,52,26.6
		L52,26.6z"/>
	<path fill="#FFFFFF" d="M51.9,27.5c0,0.2-0.1,0.3-0.3,0.3c-0.2,0-0.3-0.2-0.3-0.3s0.1-0.3,0.3-0.3C51.7,27.2,51.9,27.3,51.9,27.5
		L51.9,27.5z"/>
	<path fill="#FFFFFF" d="M53.5,25.2c0-0.2,0.1-0.3,0.3-0.3s0.3,0.2,0.3,0.3c0,0.2-0.1,0.3-0.3,0.3S53.5,25.4,53.5,25.2L53.5,25.2z"
		/>
	<path fill="#FFFFFF" d="M54.4,24.4c0-0.2,0.1-0.3,0.3-0.3c0.2,0,0.3,0.2,0.3,0.3s-0.1,0.3-0.3,0.3C54.6,24.8,54.4,24.6,54.4,24.4
		L54.4,24.4z"/>
	<path fill="#FFFFFF" d="M54.2,20.1c0,0.2-0.1,0.3-0.3,0.3s-0.3-0.2-0.3-0.3c0-0.2,0.1-0.3,0.3-0.3S54.2,20,54.2,20.1L54.2,20.1z"/>
	<path fill="#FFFFFF" d="M55,19.4c0,0.2-0.1,0.3-0.3,0.3s-0.3-0.2-0.3-0.3c0-0.2,0.1-0.3,0.3-0.3S55,19.3,55,19.4L55,19.4z"/>
	<path fill="#FFFFFF" d="M53.2,19.2c0-0.2,0.1-0.3,0.3-0.3c0.2,0,0.3,0.2,0.3,0.3s-0.1,0.3-0.3,0.3C53.3,19.6,53.2,19.4,53.2,19.2
		L53.2,19.2z"/>
	<path fill="#FFFFFF" d="M52.9,19.8c0,0.2-0.1,0.3-0.3,0.3s-0.3-0.2-0.3-0.3c0-0.2,0.1-0.3,0.3-0.3S52.9,19.6,52.9,19.8L52.9,19.8z"
		/>
	<path fill="#FFFFFF" d="M51,19.5c0,0.2-0.1,0.3-0.3,0.3s-0.3-0.2-0.3-0.3c0-0.2,0.1-0.3,0.3-0.3S51,19.3,51,19.5L51,19.5z"/>
	<path fill="#FFFFFF" d="M50.7,18.8c0-0.2,0.1-0.3,0.3-0.3c0.2,0,0.3,0.2,0.3,0.3c0,0.2-0.1,0.3-0.3,0.3
		C50.8,19.1,50.7,19,50.7,18.8L50.7,18.8z"/>
	<path fill="#FFFFFF" d="M50.3,18.7c0,0.2-0.1,0.3-0.3,0.3c-0.2,0-0.3-0.2-0.3-0.3c0-0.2,0.1-0.3,0.3-0.3
		C50.1,18.4,50.3,18.6,50.3,18.7L50.3,18.7z"/>
	<path fill="#FFFFFF" d="M49.5,17.8c0-0.2,0.1-0.3,0.3-0.3s0.3,0.2,0.3,0.3s-0.1,0.3-0.3,0.3C49.6,18.1,49.5,18,49.5,17.8L49.5,17.8
		z"/>
	<path fill="#FFFFFF" d="M52.1,15.4c0,0.2-0.1,0.3-0.3,0.3c-0.2,0-0.3-0.2-0.3-0.3c0-0.2,0.1-0.3,0.3-0.3
		C51.9,15,52.1,15.2,52.1,15.4L52.1,15.4z"/>
	<path fill="#FFFFFF" d="M52.8,15.9c0,0.2-0.1,0.3-0.3,0.3c-0.2,0-0.3-0.2-0.3-0.3c0-0.2,0.1-0.3,0.3-0.3
		C52.6,15.6,52.8,15.8,52.8,15.9L52.8,15.9z"/>
	<path fill="#FFFFFF" d="M53.4,15.2c0,0.2-0.1,0.3-0.3,0.3s-0.3-0.2-0.3-0.3s0.1-0.3,0.3-0.3S53.4,15,53.4,15.2L53.4,15.2z"/>
	<path fill="#FFFFFF" d="M54.3,15.1c0,0.2-0.1,0.3-0.3,0.3s-0.3-0.2-0.3-0.3c0-0.2,0.1-0.3,0.3-0.3S54.3,14.9,54.3,15.1L54.3,15.1z"
		/>
	<path fill="#FFFFFF" d="M53.7,14c0,0.2-0.1,0.3-0.3,0.3c-0.2,0-0.3-0.2-0.3-0.3s0.1-0.3,0.3-0.3C53.5,13.7,53.7,13.8,53.7,14
		L53.7,14z"/>
	<path fill="#FFFFFF" d="M44,25.2c0,0.2-0.1,0.3-0.3,0.3s-0.3-0.2-0.3-0.3s0.1-0.3,0.3-0.3S44,25,44,25.2L44,25.2z"/>
	<path fill="#FFFFFF" d="M42.8,24.9c0,0.2-0.1,0.3-0.3,0.3c-0.2,0-0.3-0.2-0.3-0.3s0.1-0.3,0.3-0.3C42.7,24.6,42.8,24.7,42.8,24.9
		L42.8,24.9z"/>
	<path fill="#FFFFFF" d="M42.4,25.8c0,0.2-0.1,0.3-0.3,0.3c-0.2,0-0.3-0.2-0.3-0.3s0.1-0.3,0.3-0.3C42.2,25.4,42.4,25.6,42.4,25.8
		L42.4,25.8z"/>
	<path fill="#FFFFFF" d="M42.7,25.9c0-0.2,0.1-0.3,0.3-0.3s0.3,0.2,0.3,0.3s-0.1,0.3-0.3,0.3S42.7,26.1,42.7,25.9L42.7,25.9z"/>
	<path fill="#FFFFFF" d="M39.3,23.7c0-0.2,0.1-0.3,0.3-0.3c0.2,0,0.3,0.2,0.3,0.3s-0.1,0.3-0.3,0.3C39.4,24.1,39.3,23.9,39.3,23.7
		L39.3,23.7z"/>
	<path fill="#FFFFFF" d="M37.9,23.2c0-0.2,0.1-0.3,0.3-0.3s0.3,0.2,0.3,0.3s-0.1,0.3-0.3,0.3S37.9,23.4,37.9,23.2L37.9,23.2z"/>
	<path fill="#FFFFFF" d="M37.2,23.9c0-0.2,0.1-0.3,0.3-0.3s0.3,0.2,0.3,0.3s-0.1,0.3-0.3,0.3S37.2,24.1,37.2,23.9L37.2,23.9z"/>
	<path fill="#FFFFFF" d="M38,24.5c0-0.2,0.1-0.3,0.3-0.3s0.3,0.2,0.3,0.3c0,0.2-0.1,0.3-0.3,0.3C38.1,24.8,38,24.7,38,24.5L38,24.5z
		"/>
	<path fill="#FFFFFF" d="M54.8,25.4c0-0.2,0.1-0.3,0.3-0.3c0.2,0,0.3,0.2,0.3,0.3c0,0.2-0.1,0.3-0.3,0.3
		C55,25.7,54.8,25.6,54.8,25.4L54.8,25.4z"/>
	<path fill="#FFFFFF" d="M55.6,24.5c0-0.2,0.1-0.3,0.3-0.3s0.3,0.2,0.3,0.3c0,0.2-0.1,0.3-0.3,0.3C55.8,24.8,55.6,24.7,55.6,24.5
		L55.6,24.5z"/>
	<path fill="#FFFFFF" d="M56.1,26.9c0,0.2-0.1,0.3-0.3,0.3c-0.2,0-0.3-0.2-0.3-0.3c0-0.2,0.1-0.3,0.3-0.3S56.1,26.8,56.1,26.9
		L56.1,26.9z"/>
	<path fill="#FFFFFF" d="M55.5,27.9c0-0.2,0.1-0.3,0.3-0.3c0.2,0,0.3,0.2,0.3,0.3s-0.1,0.3-0.3,0.3C55.7,28.2,55.5,28.1,55.5,27.9
		L55.5,27.9z"/>
	<path fill="#FFFFFF" d="M55,27.4c0-0.2-0.1-0.3-0.3-0.3c-0.2,0-0.3,0.2-0.3,0.3c0,0,0,0,0,0c-0.1-0.1-0.1-0.2-0.2-0.3
		c-0.2-0.2-0.7-0.5-1.2-0.5c0.4,0.3,0.5,0.7,0.8,1c0.3,0.3,0.6,0.5,1.1,0.5c-0.1-0.1-0.2-0.2-0.3-0.4c0,0,0.1,0,0.1,0
		C54.9,27.8,55,27.6,55,27.4L55,27.4z"/>
	<path fill="#FFFFFF" d="M14.2,26.7c0-0.2,0.1-0.3,0.3-0.3c0.2,0,0.3,0.2,0.3,0.3S14.7,27,14.5,27C14.3,27,14.2,26.8,14.2,26.7
		L14.2,26.7z"/>
	<path fill="#FFFFFF" d="M25.9,21.4v0.3c0,0.5,0.1,1.4,0.7,1.8c0.5,0.3,4.1,2.7,4.2,2.8l0.1,0l0.1,0c0.2-0.1,3.8-2.4,4.2-2.8
		c0.5-0.4,0.7-1.4,0.7-1.8v-0.3h-0.2v0.3c0,0.5-0.2,1.3-0.6,1.6c-0.3,0.2-1.5,1-2.6,1.7v-3.7h-0.2v3.8l-1.3,0.9
		c-0.2-0.1-0.9-0.5-1.6-1v-3.7h-0.2v3.5c-1-0.7-2.1-1.4-2.3-1.6c-0.4-0.3-0.6-1.2-0.6-1.6v-0.3H25.9L25.9,21.4z M26.3,21.4
		C26.3,21.4,26.3,21.4,26.3,21.4c0,0,0,0.1,0.1,0.1c0,0-0.1,0.1-0.1,0.3c0,0.6,0.4,0.9,0.6,0.9c0.2,0,0.2-0.1,0.2-0.2
		c0,0.1,0.1-0.1,0.1,0.1c0,0.2-0.2,0.1-0.2,0.3c0,0.2,0.3,0,0.3,0.2c0,0.3,0,0.3,0,0.4c0,0.1,0.3-0.1,0.3-0.1c0.1,0,0.1,0.3,0.2,0.3
		c0.1,0,0.1-0.2,0.2-0.3c0,0,0.3,0.2,0.3,0.1c0-0.3-0.1-0.2-0.1-0.4c0-0.2,0.4-0.1,0.3-0.2c0-0.1-0.1,0-0.1-0.2c0,0-0.3-0.5,0.1-0.2
		c0.4,0.3,0.4-0.6,0.4-0.7c0,0-0.3,0.1-0.3,0.1c0-0.1,0.2-0.3,0.3-0.4c0-0.1-0.2,0-0.3,0.1c0.1-0.1,0.1-0.2,0.2-0.3l-0.5,0
		c0,0.1-0.1,0.2-0.1,0.3c-0.1,0.1-0.1-0.1-0.1-0.3l-0.6,0c0,0,0,0.1,0,0.1c0,0.1,0.1,0.3-0.1,0.3c-0.1,0-0.2-0.2-0.2-0.4L26.3,21.4
		L26.3,21.4z M31.1,21.4c0,0.2,0.1,0.4,0.2,0.8c0.3,0.8,0.2,0.7,0.2,0.8c-0.1-0.4-0.5-0.6-0.7-0.7c-0.2-0.1-1-0.2-1.1-0.6
		c-0.1,0.2,0,0.4,0.1,0.6c-0.2,0-0.2-0.2-0.2-0.2s-0.1,0.3,0,0.5c0,0-0.1,0-0.1-0.1c0,0.1-0.1,1.2,0.6,1.6h1.1
		c0.3,0,0.7-0.3,0.8-0.7c0.1-0.4-0.1-0.8-0.1-1c-0.1-0.2-0.3-0.8-0.3-1L31.1,21.4L31.1,21.4z M32.7,21.4c0,0.1,0.1,0.2,0.1,0.3
		c0.1,0,0.1,0,0.2,0.1c0,0.1,0.1,0.2,0.3,0.3c-0.1,0.1,0,0.4,0,0.5c0,0.1-0.1,0.3-0.2,0.4c-0.1,0.1-0.2,0.1-0.3,0.1
		c-0.1,0.1-0.1,0.3,0,0.3c0.1,0,0.1-0.1,0.4-0.2c0,0,0,0,0.1-0.2s0.1-0.1,0.2-0.2c0.1-0.1,0.3-0.3,0.3-0.4c0.1,0.1,0.1,0.1,0.3,0.1
		c0,0.1,0,0.2,0,0.3c0,0.1-0.1,0.1-0.1,0.2c-0.1,0.1-0.1,0.1-0.3,0.1c-0.1,0-0.2,0.1-0.1,0.3c0.1,0,0.2,0,0.3,0c0.1,0,0.1,0,0.2-0.2
		c0.1-0.1,0.1-0.2,0.3-0.3c0-0.1,0.2-0.2,0.3-0.3c0,0.1,0,0.3-0.1,0.3s-0.1,0-0.1,0.2c0.1,0,0.2,0,0.2,0c0.1,0,0.1-0.1,0.2-0.2
		c0-0.1,0.1-0.2,0.1-0.3s0.1-0.1,0.1-0.2c0-0.1,0-0.1,0-0.2c0-0.1,0-0.1-0.1-0.3c0,0,0.1,0,0.1,0c0.1,0,0.1-0.1,0.2-0.1
		c0.1-0.2,0-0.4-0.2-0.5l-0.4,0c0.1,0.1,0.1,0.1,0.2,0.1l0.1,0c0.2,0.1,0.2,0.2,0.2,0.3c0,0,0,0,0,0c0,0-0.1,0-0.1,0
		c0,0-0.1-0.1-0.3-0.1c-0.1,0-0.2,0-0.2,0c-0.1,0-0.1-0.1-0.3-0.2c0.1,0,0.1-0.1,0.1-0.2l-1.1,0c0,0,0,0,0.1,0.2
		c-0.1,0-0.1,0-0.2-0.1c-0.1-0.1-0.1-0.1-0.1-0.2L32.7,21.4L32.7,21.4z"/>
	<path fill="#FFFFFF" d="M25.9,16.4v5h0.2V20h2.9v1.4h0.2V20h2.9v1.4h0.2V20h3.2v1.4h0.2v-5h-0.2v3.3h-3.2v-3.3h-0.2v3.3h-2.9v-3.3
		h-0.2v0h-0.9v0h-1.1v0h-1v0H25.9L25.9,16.4z M31,16.4l-0.1,0.1l-0.2,0l0.1,0.2l-0.2,0.2l0.2,0.1l0,0.2l0.2-0.1l0.2,0.1l0-0.2
		l0.2-0.1l-0.2-0.2l0.1-0.2l-0.2,0L31,16.4L31,16.4L31,16.4z M32.8,16.4l0.1,0.6l-0.1,0.9l0.8-0.2l-0.5,1.6l1-0.5l1,0.5l-0.5-1.6
		l0.8,0.2L35.2,17l0.1-0.6h-0.6l-0.1,0l0,0h-0.5c0.2,0.5,0.7-0.1,0.7,0.5c0,0.3,0,0.6-0.2,0.6h-0.8c-0.3,0-0.3-0.2-0.3-0.6
		c0-0.5,0.4-0.1,0.6-0.5l-0.5,0l0,0l-0.1,0H32.8L32.8,16.4z M27.1,21.4C27.1,21.4,27.1,21.4,27.1,21.4c0-0.1,0-0.1,0-0.3
		c0-0.3-0.5-0.8-0.7-0.8c0,0.2,0.3,0.3,0.3,0.5c-0.1,0-0.3-0.2-0.3-0.1s0.2,0.2,0.2,0.3s-0.2,0-0.2,0.1c0,0.1,0.1,0.1,0.1,0.2
		c-0.1,0-0.1,0-0.2,0L27.1,21.4L27.1,21.4z M27.9,21.4c0-0.1-0.1-0.3-0.3-0.3c-0.1,0-0.4,0-0.4,0.1c0.1,0,0.1,0.1,0.2,0.2L27.9,21.4
		L27.9,21.4z M28.7,21.4c0.3-0.4,0-0.2-0.3-0.1c0.5-0.5,0.3-0.5,0-0.4c0.3-0.2,0.3-0.5,0.3-0.6c-0.3,0.4-0.5,0.3-0.5,0.6
		c0,0.1,0,0.3-0.1,0.4H28.7L28.7,21.4z M31.5,21.4c0-0.1,0-0.1,0.1-0.1c0.2,0.1,0.4,0,0.5,0c0-0.1-0.1-0.1-0.1-0.1
		c-0.1,0-0.1-0.1-0.2-0.3c0-0.1-0.3-0.2-0.5,0c-0.1,0.1-0.2,0.3-0.1,0.5L31.5,21.4L31.5,21.4z M32.9,21.4
		C32.9,21.4,32.9,21.4,32.9,21.4c0-0.1,0-0.3-0.2-0.2c-0.1,0-0.1,0.1,0,0.2L32.9,21.4L32.9,21.4z M34.3,21.4c0-0.2-0.1-0.4-0.1-0.5
		c0-0.1,0-0.2,0-0.4c0,0-0.1,0.1-0.2,0.1c-0.2,0-0.2,0-0.3,0c-0.1,0-0.2,0.1-0.2,0.2c-0.1,0-0.2,0-0.3,0s0,0.1-0.1,0.3
		c0.1,0.1,0.1,0.1,0.1,0.2c0,0,0,0,0,0L34.3,21.4L34.3,21.4z M35.1,21.4C35.1,21.4,35,21.4,35.1,21.4l-0.2,0c-0.1,0-0.2-0.1-0.2-0.2
		c0-0.1,0-0.1,0.1-0.1c0.1,0,0.1,0,0.2,0c0.1,0.1,0.3,0.1,0.3,0c0.1,0,0.1-0.1,0.1-0.3c0,0.1-0.1,0.1-0.2,0.1c-0.1,0-0.1,0-0.2,0.1
		c-0.1,0-0.2,0-0.3,0c-0.1,0.1-0.2,0.2-0.2,0.3c0,0.1,0.1,0.1,0.1,0.2L35.1,21.4L35.1,21.4z M33.6,17c0,0.2,0.3,0.1,0.5,0.1
		c0.2,0,0.5,0.2,0.5-0.1c0-0.3-0.3-0.2-0.5-0.2C33.9,16.8,33.6,16.7,33.6,17L33.6,17z M27.3,19.2l0.1-0.1l-0.1-0.1l0.1,0l0.1-0.2
		l0.1,0.2l0.2,0L27.8,19l0.1,0.1l-0.1,0v0.2l-0.1-0.1l-0.1,0.1v-0.2L27.3,19.2L27.3,19.2z M26.3,17.2l0.1-0.1l-0.1-0.1l0.2,0
		l0.1-0.2l0.1,0.2l0.2,0l-0.1,0.1l0.1,0.1l-0.1,0v0.2l-0.1-0.1l-0.1,0.1v-0.2L26.3,17.2L26.3,17.2z M28,17.4
		C28,17.3,27.9,17.3,28,17.4c-0.2-0.1-0.2,0.1-0.3,0.1c-0.1,0-0.1,0-0.1-0.1c0-0.1,0.1-0.1,0.2-0.1c-0.6,0-0.6,0.3-0.7,0.3
		c-0.2,0,0.1-0.3,0.2-0.4c-0.1,0-0.2-0.2-0.3-0.3c0.1-0.1,0.1-0.1,0.2,0c0-0.1,0-0.1,0.2-0.1c0.3,0,0.2,0.3,0.2,0.3
		c0,0,0-0.3,0.2-0.3c0.3,0,0.6,0.7,0.3,0.7C27.9,17.5,28,17.4,28,17.4L28,17.4z M28.3,17.2l0.1-0.1l-0.1-0.1l0.1,0l0.1-0.2l0.1,0.2
		l0.2,0l-0.1,0.1l0.1,0.1l-0.1,0v0.2l-0.1-0.1l-0.1,0.1v-0.2L28.3,17.2L28.3,17.2z M31.6,18.6l0.1,0.1l0-0.1l0.1,0l-0.1-0.1l0-0.1
		l-0.1,0l-0.1-0.1l-0.1,0.1l-0.1,0l0,0.1l-0.1,0.1l0.1,0l0,0.1L31.6,18.6L31.6,18.6z M31.5,17.9l0.1,0.1l0-0.2l0.2-0.1l-0.1-0.1
		l0.1-0.2l-0.2,0l-0.1-0.2l-0.1,0.2l-0.2,0l0.1,0.2l-0.1,0.1l0.2,0.1l0,0.2L31.5,17.9L31.5,17.9z M30.2,18l0.2,0.1l0-0.2l0.2-0.1
		l-0.2-0.2l0.1-0.2l-0.2,0l-0.1-0.2l-0.1,0.2l-0.2,0l0.1,0.2l-0.2,0.2l0.2,0.1l0,0.2L30.2,18L30.2,18z M30.6,19.3l0.3,0.2l0-0.3
		l0.3-0.1l-0.2-0.2l0.1-0.3l-0.3,0.1l-0.2-0.3l-0.2,0.3l-0.3-0.1l0.1,0.3L30,19.1l0.3,0.1l0,0.3L30.6,19.3L30.6,19.3z M29.1,19.8
		h-0.9v-2h0.9V19.8L29.1,19.8z M26.1,17.8h1v2h-1V17.8L26.1,17.8z"/>
	<path fill="#FFFFFF" d="M26.1,16.4v-2h1v2h1.1v-2h0.9v2h0.2v-2h2.9v2h0.2v-2h3.2v2h0.2v-2.2h-0.1h-9.9v2.2H26.1L26.1,16.4z
		 M31,16.4L31,16.4L31,16.4L31,16.4L31,16.4z M33.5,16.4l-0.7-0.3l0,0.3H33.5L33.5,16.4z M34.1,16.4C34.1,16.4,34.1,16.4,34.1,16.4
		C34,16.4,34,16.4,34.1,16.4h-0.5L33.1,15l1,0.4l1-0.4l-0.5,1.4H34.1L34.1,16.4z M35.3,16.4l0-0.3l-0.7,0.3H35.3L35.3,16.4z
		 M27.3,15.3l0.1-0.1L27.4,15l0.1,0l0.1-0.2l0.1,0.2l0.2,0l-0.1,0.1l0.1,0.1l-0.1,0v0.2l-0.1-0.1l-0.1,0.1v-0.2L27.3,15.3L27.3,15.3
		z M30.3,15.2c0.1-0.1,0.3,0,0.4,0.1v0.1h0.2v-0.1c0.1-0.1,0.3-0.1,0.4-0.1c0.1,0.1,0.1,0.2,0,0.3h-1.1
		C30.3,15.4,30.2,15.3,30.3,15.2L30.3,15.2z M31.4,15.1c-0.1-0.1-0.3-0.1-0.5,0v-0.3h-0.2v0.4c-0.1-0.1-0.3-0.1-0.5,0
		c-0.1,0.1-0.2,0.2-0.1,0.5l0.1,0.5l0,0h1l0.2-0.5C31.6,15.3,31.5,15.2,31.4,15.1L31.4,15.1z"/>
</g>
<g>
	<path fill="#FFFFFF" d="M64.5,41.8v-0.2h0.2c0.2,0,0.4,0,0.5-0.1c0.1-0.1,0.2-0.2,0.2-0.3c0-0.1,0-0.3,0-0.7V36
		c0-0.4,0-0.6-0.1-0.7s-0.1-0.2-0.2-0.2C65.1,35,65,35,64.8,35h-0.2v-0.2h3.1c0.8,0,1.5,0.1,2,0.3c0.6,0.3,1.1,0.7,1.4,1.3
		c0.3,0.6,0.5,1.2,0.5,1.9c0,0.5-0.1,0.9-0.2,1.4c-0.2,0.4-0.4,0.8-0.6,1c-0.3,0.3-0.5,0.5-0.9,0.7c-0.3,0.2-0.7,0.3-1.2,0.4
		c-0.2,0-0.5,0.1-1,0.1H64.5L64.5,41.8z M67.2,35.2v5.5c0,0.3,0,0.5,0,0.5c0,0.1,0.1,0.1,0.1,0.1c0.1,0.1,0.2,0.1,0.4,0.1
		c0.6,0,1-0.2,1.3-0.6c0.4-0.5,0.6-1.4,0.6-2.5c0-0.9-0.1-1.6-0.4-2.2c-0.2-0.4-0.5-0.7-0.9-0.9C68.2,35.3,67.8,35.2,67.2,35.2z"/>
	<path fill="#FFFFFF" d="M76.2,39.2h-2.7c0,0.6,0.2,1.1,0.5,1.5c0.2,0.3,0.5,0.4,0.9,0.4c0.2,0,0.4-0.1,0.6-0.2s0.3-0.3,0.5-0.6
		l0.2,0.1c-0.3,0.5-0.6,0.9-0.9,1.1C75,41.9,74.7,42,74.3,42c-0.7,0-1.3-0.3-1.6-0.8c-0.3-0.4-0.4-1-0.4-1.7c0-0.8,0.2-1.4,0.7-1.9
		c0.4-0.5,0.9-0.7,1.5-0.7c0.5,0,0.9,0.2,1.3,0.6C76,37.9,76.2,38.5,76.2,39.2z M75,38.9c0-0.6,0-0.9-0.1-1.1s-0.2-0.4-0.3-0.5
		c-0.1-0.1-0.2-0.1-0.3-0.1c-0.2,0-0.3,0.1-0.4,0.3c-0.2,0.3-0.3,0.7-0.3,1.3v0.2H75z"/>
	<path fill="#FFFFFF" d="M78.5,41.3v1.8c0,0.2,0,0.4,0.1,0.5s0.1,0.2,0.2,0.2c0.1,0,0.2,0.1,0.5,0.1v0.2h-2.8v-0.2
		c0.2,0,0.4-0.1,0.5-0.2c0.1-0.1,0.1-0.3,0.1-0.6V38c0-0.3,0-0.6-0.1-0.7c-0.1-0.1-0.2-0.1-0.5-0.2V37h2v0.6
		c0.2-0.2,0.3-0.4,0.5-0.5c0.3-0.2,0.5-0.2,0.8-0.2c0.4,0,0.7,0.1,1,0.3c0.3,0.2,0.5,0.5,0.7,0.9c0.2,0.4,0.2,0.8,0.2,1.3
		c0,0.5-0.1,0.9-0.2,1.3c-0.2,0.4-0.4,0.7-0.7,0.9c-0.3,0.2-0.6,0.3-1,0.3c-0.3,0-0.5-0.1-0.7-0.2C78.8,41.7,78.6,41.6,78.5,41.3z
		 M78.5,40.8c0.3,0.4,0.6,0.6,1,0.6c0.2,0,0.3-0.1,0.5-0.3c0.2-0.3,0.3-0.8,0.3-1.7c0-0.8-0.1-1.4-0.3-1.7c-0.1-0.2-0.3-0.3-0.5-0.3
		c-0.3,0-0.6,0.3-0.9,0.8V40.8z"/>
	<path fill="#FFFFFF" d="M84.9,41.1c-0.6,0.5-1.1,0.8-1.6,0.8c-0.3,0-0.5-0.1-0.7-0.3c-0.2-0.2-0.3-0.4-0.3-0.7c0-0.4,0.2-0.7,0.5-1
		c0.3-0.3,1-0.7,2.1-1.2v-0.5c0-0.4,0-0.6-0.1-0.7s-0.1-0.2-0.2-0.2c-0.1-0.1-0.2-0.1-0.4-0.1c-0.2,0-0.4,0-0.6,0.1
		c-0.1,0.1-0.1,0.1-0.1,0.2c0,0.1,0,0.2,0.1,0.3c0.1,0.1,0.2,0.3,0.2,0.4c0,0.2-0.1,0.3-0.2,0.4c-0.1,0.1-0.3,0.2-0.5,0.2
		c-0.2,0-0.4-0.1-0.5-0.2c-0.1-0.1-0.2-0.3-0.2-0.5c0-0.2,0.1-0.5,0.3-0.7c0.2-0.2,0.5-0.4,0.8-0.5c0.4-0.1,0.7-0.2,1.1-0.2
		c0.5,0,0.8,0.1,1.1,0.3c0.3,0.2,0.4,0.4,0.5,0.6c0,0.1,0.1,0.5,0.1,1v1.9c0,0.2,0,0.4,0,0.4c0,0.1,0,0.1,0.1,0.1c0,0,0.1,0,0.1,0
		c0.1,0,0.2-0.1,0.3-0.2l0.2,0.1c-0.2,0.3-0.4,0.4-0.5,0.6c-0.2,0.1-0.4,0.2-0.6,0.2c-0.3,0-0.5-0.1-0.6-0.2
		C85,41.6,84.9,41.4,84.9,41.1z M84.9,40.7v-1.6c-0.4,0.2-0.7,0.5-0.9,0.8c-0.1,0.2-0.2,0.4-0.2,0.6c0,0.2,0.1,0.3,0.2,0.4
		C84,41,84.1,41,84.3,41C84.5,41,84.7,40.9,84.9,40.7z"/>
	<path fill="#FFFFFF" d="M89.3,37v1.1c0.3-0.5,0.6-0.8,0.8-1c0.2-0.2,0.5-0.2,0.7-0.2c0.2,0,0.3,0.1,0.5,0.2
		c0.1,0.1,0.2,0.3,0.2,0.5c0,0.2-0.1,0.4-0.2,0.5c-0.1,0.1-0.2,0.2-0.4,0.2c-0.2,0-0.3-0.1-0.5-0.2c-0.1-0.1-0.2-0.2-0.2-0.2
		c0,0-0.1,0-0.1,0c-0.1,0-0.2,0-0.3,0.1c-0.1,0.1-0.2,0.3-0.3,0.5c-0.1,0.3-0.2,0.7-0.2,1.1v1.1l0,0.3c0,0.2,0,0.3,0,0.4
		c0,0.1,0.1,0.2,0.2,0.2s0.2,0.1,0.4,0.1v0.2h-2.6v-0.2c0.2,0,0.4-0.1,0.4-0.2c0.1-0.1,0.1-0.4,0.1-0.8V38c0-0.3,0-0.5,0-0.5
		c0-0.1-0.1-0.2-0.2-0.2c-0.1,0-0.2-0.1-0.3-0.1V37H89.3z"/>
	<path fill="#FFFFFF" d="M93.6,35.2V37h1.1v0.5h-1.1v3c0,0.3,0,0.5,0,0.5c0,0.1,0.1,0.1,0.1,0.2c0.1,0,0.1,0.1,0.2,0.1
		c0.2,0,0.4-0.2,0.6-0.5l0.2,0.1c-0.3,0.7-0.7,1-1.4,1c-0.3,0-0.6-0.1-0.8-0.3c-0.2-0.2-0.3-0.4-0.4-0.6c0-0.1-0.1-0.4-0.1-1v-2.6
		h-0.6v-0.2c0.4-0.3,0.8-0.6,1.1-1c0.3-0.3,0.6-0.7,0.8-1.1L93.6,35.2L93.6,35.2z"/>
	<path fill="#FFFFFF" d="M97,37v0.6c0.3-0.3,0.5-0.5,0.7-0.6c0.2-0.1,0.5-0.2,0.7-0.2c0.3,0,0.6,0.1,0.8,0.2
		c0.2,0.1,0.4,0.4,0.5,0.7c0.3-0.3,0.5-0.5,0.8-0.7c0.3-0.1,0.5-0.2,0.8-0.2c0.3,0,0.6,0.1,0.8,0.2c0.2,0.2,0.3,0.3,0.4,0.6
		c0.1,0.2,0.1,0.6,0.1,1.1v2c0,0.4,0,0.6,0.1,0.7c0.1,0.1,0.2,0.1,0.4,0.2v0.2h-2.5v-0.2c0.2,0,0.3-0.1,0.4-0.2
		c0.1-0.1,0.1-0.3,0.1-0.6v-2.1c0-0.4,0-0.7-0.1-0.8c0-0.1-0.1-0.2-0.2-0.3s-0.2-0.1-0.3-0.1c-0.1,0-0.3,0.1-0.5,0.2
		c-0.2,0.1-0.3,0.3-0.5,0.5v2.6c0,0.3,0,0.6,0.1,0.7c0.1,0.1,0.2,0.2,0.5,0.2v0.2h-2.5v-0.2c0.1,0,0.2,0,0.3-0.1
		c0.1-0.1,0.1-0.1,0.2-0.2c0-0.1,0-0.3,0-0.6v-2.1c0-0.4,0-0.7-0.1-0.8c0-0.1-0.1-0.2-0.2-0.3c-0.1-0.1-0.2-0.1-0.3-0.1
		c-0.1,0-0.3,0-0.4,0.1c-0.2,0.1-0.3,0.3-0.5,0.5v2.6c0,0.3,0,0.6,0.1,0.7c0.1,0.1,0.2,0.2,0.4,0.2v0.2H95v-0.2
		c0.2,0,0.3-0.1,0.4-0.2c0.1-0.1,0.1-0.3,0.1-0.7V38c0-0.4,0-0.6-0.1-0.7s-0.2-0.1-0.4-0.2V37L97,37L97,37z"/>
	<path fill="#FFFFFF" d="M107.6,39.2H105c0,0.6,0.2,1.1,0.5,1.5c0.2,0.3,0.5,0.4,0.9,0.4c0.2,0,0.4-0.1,0.6-0.2
		c0.2-0.1,0.4-0.3,0.5-0.6l0.2,0.1c-0.3,0.5-0.6,0.9-0.9,1.1c-0.3,0.2-0.7,0.3-1.1,0.3c-0.7,0-1.3-0.3-1.6-0.8
		c-0.3-0.4-0.4-1-0.4-1.7c0-0.8,0.2-1.4,0.7-1.9c0.4-0.5,0.9-0.7,1.5-0.7c0.5,0,0.9,0.2,1.3,0.6C107.4,37.9,107.6,38.5,107.6,39.2z
		 M106.3,38.9c0-0.6,0-0.9-0.1-1.1s-0.2-0.4-0.3-0.5c-0.1-0.1-0.2-0.1-0.3-0.1c-0.2,0-0.3,0.1-0.4,0.3c-0.2,0.3-0.3,0.7-0.3,1.3v0.2
		H106.3z"/>
	<path fill="#FFFFFF" d="M109.9,37v0.6c0.2-0.3,0.5-0.5,0.7-0.6c0.2-0.1,0.5-0.2,0.7-0.2c0.3,0,0.6,0.1,0.8,0.3s0.3,0.4,0.4,0.6
		c0.1,0.2,0.1,0.6,0.1,1.1v1.9c0,0.4,0,0.6,0.1,0.7c0.1,0.1,0.2,0.1,0.4,0.2v0.2h-2.4v-0.2c0.2,0,0.3-0.1,0.4-0.2
		c0.1-0.1,0.1-0.3,0.1-0.6v-2.2c0-0.4,0-0.6,0-0.8s-0.1-0.2-0.2-0.2c-0.1-0.1-0.2-0.1-0.2-0.1c-0.3,0-0.6,0.2-0.8,0.6v2.6
		c0,0.4,0,0.6,0.1,0.7c0.1,0.1,0.2,0.2,0.4,0.2v0.2H108v-0.2c0.2,0,0.3-0.1,0.4-0.2c0.1-0.1,0.1-0.3,0.1-0.7V38c0-0.4,0-0.6-0.1-0.7
		s-0.2-0.1-0.4-0.2V37H109.9z"/>
	<path fill="#FFFFFF" d="M115.5,35.2V37h1.1v0.5h-1.1v3c0,0.3,0,0.5,0,0.5c0,0.1,0.1,0.1,0.1,0.2c0.1,0,0.1,0.1,0.2,0.1
		c0.2,0,0.4-0.2,0.6-0.5l0.2,0.1c-0.3,0.7-0.7,1-1.4,1c-0.3,0-0.6-0.1-0.8-0.3c-0.2-0.2-0.3-0.4-0.4-0.6c0-0.1-0.1-0.4-0.1-1v-2.6
		h-0.6v-0.2c0.4-0.3,0.8-0.6,1.1-1c0.3-0.3,0.6-0.7,0.8-1.1L115.5,35.2L115.5,35.2z"/>
	<path fill="#FFFFFF" d="M121.5,36.8c0.4,0,0.8,0.1,1.2,0.3c0.4,0.2,0.6,0.5,0.8,0.9c0.2,0.4,0.3,0.8,0.3,1.3c0,0.7-0.2,1.3-0.5,1.7
		c-0.4,0.6-1,0.8-1.7,0.8c-0.7,0-1.3-0.3-1.7-0.8c-0.4-0.5-0.6-1.1-0.6-1.8c0-0.7,0.2-1.3,0.6-1.8S120.8,36.8,121.5,36.8z
		 M121.5,37.2c-0.2,0-0.3,0.1-0.5,0.2c-0.1,0.1-0.2,0.4-0.2,0.8c0,0.4-0.1,0.9-0.1,1.6c0,0.4,0,0.7,0.1,1c0,0.2,0.1,0.4,0.2,0.6
		c0.1,0.1,0.3,0.2,0.4,0.2c0.2,0,0.3,0,0.4-0.1c0.1-0.1,0.2-0.3,0.3-0.5c0.1-0.3,0.1-1,0.1-2c0-0.6,0-1-0.1-1.2
		c-0.1-0.2-0.2-0.4-0.3-0.5C121.8,37.3,121.7,37.2,121.5,37.2z"/>
	<path fill="#FFFFFF" d="M126.4,37.5v3.4c0,0.3,0,0.5,0.1,0.6c0.1,0.1,0.3,0.2,0.6,0.2v0.2h-2.9v-0.2c0.2,0,0.4,0,0.5-0.1
		c0.1,0,0.2-0.1,0.2-0.2c0-0.1,0.1-0.3,0.1-0.5v-3.4h-0.7V37h0.7v-0.4l0-0.2c0-0.5,0.2-0.9,0.5-1.2c0.4-0.3,0.9-0.5,1.5-0.5
		c0.4,0,0.7,0.1,0.9,0.2c0.2,0.2,0.3,0.3,0.3,0.5c0,0.2-0.1,0.3-0.2,0.4c-0.1,0.1-0.3,0.2-0.5,0.2c-0.2,0-0.3,0-0.4-0.1
		c-0.1-0.1-0.2-0.2-0.2-0.3c0,0,0-0.1,0-0.2c0-0.1,0-0.1,0-0.2c0-0.1,0-0.1-0.1-0.2c-0.1-0.1-0.1-0.1-0.2-0.1c-0.1,0-0.2,0-0.3,0.1
		c-0.1,0.1-0.1,0.2-0.1,0.4l0,0.9V37h0.7v0.5L126.4,37.5L126.4,37.5z"/>
	<path fill="#FFFFFF" d="M133.4,39.8h-2.5l-0.3,0.7c-0.1,0.2-0.1,0.4-0.1,0.6c0,0.2,0.1,0.3,0.2,0.4c0.1,0.1,0.3,0.1,0.7,0.1v0.2
		h-2.3v-0.2c0.3,0,0.5-0.1,0.6-0.3c0.2-0.2,0.4-0.5,0.6-1.1l2.5-5.6h0.1l2.5,5.8c0.2,0.5,0.4,0.9,0.6,1c0.1,0.1,0.3,0.2,0.5,0.2v0.2
		h-3.4v-0.2h0.1c0.3,0,0.5,0,0.6-0.1c0.1-0.1,0.1-0.1,0.1-0.2c0-0.1,0-0.1,0-0.2c0,0-0.1-0.2-0.2-0.4L133.4,39.8z M133.2,39.5
		l-1-2.4l-1.1,2.4H133.2z"/>
	<path fill="#FFFFFF" d="M139.8,37.1h1.6v0.6h-0.9c0.2,0.2,0.3,0.3,0.4,0.5c0.1,0.2,0.1,0.4,0.1,0.6c0,0.3-0.1,0.6-0.3,0.9
		c-0.2,0.3-0.5,0.5-0.8,0.6c-0.3,0.1-0.6,0.2-0.9,0.2c0,0-0.2,0-0.6,0c-0.2,0-0.3,0.1-0.4,0.2c-0.1,0.1-0.2,0.2-0.2,0.4
		c0,0.1,0,0.2,0.1,0.3c0.1,0.1,0.2,0.1,0.5,0.1l0.9,0c0.7,0,1.2,0.1,1.5,0.2c0.4,0.2,0.6,0.6,0.6,1c0,0.3-0.1,0.6-0.3,0.8
		c-0.2,0.2-0.4,0.4-0.7,0.5c-0.4,0.2-1,0.3-1.5,0.3c-0.4,0-0.8,0-1.2-0.1s-0.6-0.2-0.8-0.4c-0.2-0.1-0.2-0.3-0.2-0.5
		c0-0.2,0.1-0.3,0.2-0.4c0.1-0.1,0.3-0.2,0.7-0.3c-0.4-0.2-0.7-0.5-0.7-0.9c0-0.2,0.1-0.5,0.3-0.7c0.2-0.2,0.5-0.4,0.9-0.6
		c-0.5-0.2-0.8-0.4-1-0.7s-0.3-0.6-0.3-1c0-0.5,0.2-0.9,0.6-1.2c0.4-0.3,0.9-0.5,1.5-0.5C139.2,36.8,139.5,36.9,139.8,37.1z
		 M138.6,42.5c-0.4,0-0.6,0-0.7,0.1c-0.2,0.1-0.3,0.3-0.3,0.4c0,0.2,0.1,0.3,0.3,0.5c0.2,0.1,0.6,0.2,1.1,0.2c0.5,0,0.9-0.1,1.1-0.2
		c0.3-0.1,0.4-0.3,0.4-0.5c0-0.1,0-0.2-0.1-0.2c-0.1-0.1-0.2-0.2-0.4-0.2C139.9,42.6,139.4,42.5,138.6,42.5z M138.9,37.2
		c-0.2,0-0.4,0.1-0.5,0.3c-0.1,0.2-0.2,0.6-0.2,1.3c0,0.5,0.1,0.9,0.2,1.1s0.3,0.3,0.5,0.3c0.2,0,0.4-0.1,0.5-0.3
		c0.1-0.2,0.2-0.6,0.2-1.1c0-0.6-0.1-1-0.2-1.3C139.3,37.3,139.1,37.2,138.9,37.2z"/>
	<path fill="#FFFFFF" d="M143.8,37v1.1c0.3-0.5,0.6-0.8,0.8-1c0.2-0.2,0.5-0.2,0.7-0.2c0.2,0,0.3,0.1,0.5,0.2
		c0.1,0.1,0.2,0.3,0.2,0.5c0,0.2-0.1,0.4-0.2,0.5c-0.1,0.1-0.2,0.2-0.4,0.2c-0.2,0-0.3-0.1-0.5-0.2c-0.1-0.1-0.2-0.2-0.2-0.2
		c0,0-0.1,0-0.1,0c-0.1,0-0.2,0-0.3,0.1c-0.1,0.1-0.2,0.3-0.3,0.5c-0.1,0.3-0.2,0.7-0.2,1.1v1.1l0,0.3c0,0.2,0,0.3,0,0.4
		c0,0.1,0.1,0.2,0.2,0.2s0.2,0.1,0.4,0.1v0.2h-2.6v-0.2c0.2,0,0.4-0.1,0.4-0.2c0.1-0.1,0.1-0.4,0.1-0.8V38c0-0.3,0-0.5,0-0.5
		c0-0.1-0.1-0.2-0.1-0.2c-0.1,0-0.2-0.1-0.3-0.1V37H143.8z"/>
	<path fill="#FFFFFF" d="M148.1,37v3.8c0,0.3,0,0.6,0.1,0.7c0.1,0.1,0.2,0.1,0.5,0.2v0.2h-2.6v-0.2c0.2,0,0.4-0.1,0.5-0.2
		c0.1-0.1,0.1-0.3,0.1-0.6V38c0-0.3,0-0.6-0.1-0.7c-0.1-0.1-0.2-0.1-0.5-0.2V37H148.1L148.1,37z M147.4,34.6c0.2,0,0.4,0.1,0.6,0.2
		c0.2,0.2,0.2,0.3,0.2,0.6c0,0.2-0.1,0.4-0.2,0.6c-0.2,0.2-0.3,0.2-0.6,0.2s-0.4-0.1-0.6-0.2c-0.2-0.2-0.2-0.3-0.2-0.6
		c0-0.2,0.1-0.4,0.2-0.6C147,34.7,147.1,34.6,147.4,34.6z"/>
	<path fill="#FFFFFF" d="M152.8,40.6l0.2,0.1c-0.2,0.4-0.5,0.7-0.9,1c-0.3,0.2-0.7,0.3-1.1,0.3c-0.6,0-1.2-0.2-1.5-0.7
		c-0.4-0.5-0.6-1.1-0.6-1.8c0-0.7,0.2-1.2,0.5-1.7c0.4-0.6,1-0.9,1.8-0.9c0.5,0,0.9,0.1,1.2,0.4s0.4,0.5,0.4,0.8
		c0,0.2-0.1,0.4-0.2,0.5c-0.1,0.1-0.3,0.2-0.5,0.2c-0.2,0-0.4-0.1-0.5-0.2c-0.1-0.1-0.2-0.4-0.2-0.7c0-0.2-0.1-0.4-0.1-0.5
		c-0.1-0.1-0.2-0.1-0.3-0.1c-0.2,0-0.3,0.1-0.4,0.3c-0.2,0.3-0.3,0.7-0.3,1.2c0,0.5,0.1,0.9,0.2,1.3c0.1,0.4,0.3,0.7,0.6,0.9
		c0.2,0.1,0.4,0.2,0.7,0.2c0.2,0,0.3,0,0.5-0.1C152.4,41,152.6,40.8,152.8,40.6z"/>
	<path fill="#FFFFFF" d="M158,37v3.8c0,0.4,0,0.6,0.1,0.7c0.1,0.1,0.2,0.1,0.4,0.2v0.2h-2v-0.6c-0.2,0.3-0.5,0.5-0.7,0.6
		c-0.2,0.1-0.5,0.2-0.8,0.2c-0.3,0-0.5-0.1-0.7-0.3c-0.2-0.2-0.4-0.4-0.4-0.6s-0.1-0.6-0.1-1.2V38c0-0.4,0-0.6-0.1-0.7
		c-0.1-0.1-0.2-0.1-0.4-0.2V37h2v3.3c0,0.3,0,0.6,0.1,0.7c0,0.1,0.1,0.2,0.2,0.2c0.1,0.1,0.2,0.1,0.2,0.1c0.1,0,0.2,0,0.3-0.1
		c0.1-0.1,0.3-0.3,0.5-0.5V38c0-0.4,0-0.6-0.1-0.7c-0.1-0.1-0.2-0.1-0.4-0.2V37H158z"/>
	<path fill="#FFFFFF" d="M160.8,34.8v6c0,0.3,0,0.6,0.1,0.7c0.1,0.1,0.2,0.1,0.5,0.2v0.2h-2.6v-0.2c0.2,0,0.4-0.1,0.5-0.2
		c0.1-0.1,0.1-0.3,0.1-0.6v-5c0-0.3,0-0.6-0.1-0.6c-0.1-0.1-0.2-0.1-0.5-0.2v-0.2H160.8z"/>
	<path fill="#FFFFFF" d="M163.5,35.2V37h1.1v0.5h-1.1v3c0,0.3,0,0.5,0,0.5c0,0.1,0.1,0.1,0.1,0.2c0.1,0,0.1,0.1,0.2,0.1
		c0.2,0,0.4-0.2,0.6-0.5l0.2,0.1c-0.3,0.7-0.7,1-1.4,1c-0.3,0-0.6-0.1-0.8-0.3c-0.2-0.2-0.3-0.4-0.4-0.6c0-0.1-0.1-0.4-0.1-1v-2.6
		h-0.6v-0.2c0.4-0.3,0.8-0.6,1.1-1c0.3-0.3,0.6-0.7,0.8-1.1L163.5,35.2L163.5,35.2z"/>
	<path fill="#FFFFFF" d="M169.6,37v3.8c0,0.4,0,0.6,0.1,0.7s0.2,0.1,0.4,0.2v0.2h-2v-0.6c-0.2,0.3-0.5,0.5-0.7,0.6
		c-0.2,0.1-0.5,0.2-0.8,0.2c-0.3,0-0.5-0.1-0.7-0.3c-0.2-0.2-0.4-0.4-0.4-0.6s-0.1-0.6-0.1-1.2V38c0-0.4,0-0.6-0.1-0.7
		c-0.1-0.1-0.2-0.1-0.4-0.2V37h2v3.3c0,0.3,0,0.6,0,0.7c0,0.1,0.1,0.2,0.2,0.2c0.1,0.1,0.2,0.1,0.2,0.1c0.1,0,0.2,0,0.3-0.1
		c0.1-0.1,0.3-0.3,0.5-0.5V38c0-0.4,0-0.6-0.1-0.7c-0.1-0.1-0.2-0.1-0.4-0.2V37H169.6z"/>
	<path fill="#FFFFFF" d="M172.5,37v1.1c0.3-0.5,0.6-0.8,0.8-1s0.5-0.2,0.7-0.2c0.2,0,0.3,0.1,0.5,0.2c0.1,0.1,0.2,0.3,0.2,0.5
		c0,0.2-0.1,0.4-0.2,0.5s-0.2,0.2-0.4,0.2c-0.2,0-0.3-0.1-0.5-0.2c-0.1-0.1-0.2-0.2-0.2-0.2c0,0-0.1,0-0.1,0c-0.1,0-0.2,0-0.3,0.1
		c-0.1,0.1-0.2,0.3-0.3,0.5c-0.1,0.3-0.2,0.7-0.2,1.1v1.1l0,0.3c0,0.2,0,0.3,0,0.4c0,0.1,0.1,0.2,0.2,0.2c0.1,0,0.2,0.1,0.4,0.1v0.2
		h-2.6v-0.2c0.2,0,0.4-0.1,0.4-0.2c0.1-0.1,0.1-0.4,0.1-0.8V38c0-0.3,0-0.5,0-0.5c0-0.1-0.1-0.2-0.1-0.2c-0.1,0-0.2-0.1-0.3-0.1V37
		H172.5z"/>
	<path fill="#FFFFFF" d="M178.9,39.2h-2.7c0,0.6,0.2,1.1,0.5,1.5c0.2,0.3,0.5,0.4,0.9,0.4c0.2,0,0.4-0.1,0.6-0.2
		c0.2-0.1,0.3-0.3,0.5-0.6l0.2,0.1c-0.3,0.5-0.6,0.9-0.9,1.1c-0.3,0.2-0.7,0.3-1.1,0.3c-0.7,0-1.3-0.3-1.6-0.8
		c-0.3-0.4-0.4-1-0.4-1.7c0-0.8,0.2-1.4,0.7-1.9c0.4-0.5,0.9-0.7,1.5-0.7c0.5,0,0.9,0.2,1.3,0.6C178.6,37.9,178.8,38.5,178.9,39.2z
		 M177.6,38.9c0-0.6,0-0.9-0.1-1.1c-0.1-0.2-0.2-0.4-0.3-0.5c-0.1-0.1-0.2-0.1-0.3-0.1c-0.2,0-0.3,0.1-0.4,0.3
		c-0.2,0.3-0.3,0.7-0.3,1.3v0.2H177.6z"/>
	<path fill="#FFFFFF" d="M67.4,53.1c-0.6,0.5-1.1,0.8-1.6,0.8c-0.3,0-0.5-0.1-0.7-0.3c-0.2-0.2-0.3-0.4-0.3-0.7c0-0.4,0.2-0.7,0.5-1
		c0.3-0.3,1-0.7,2.1-1.2v-0.5c0-0.4,0-0.6-0.1-0.7s-0.1-0.2-0.2-0.2c-0.1-0.1-0.2-0.1-0.4-0.1c-0.2,0-0.4,0-0.6,0.1
		c-0.1,0.1-0.1,0.1-0.1,0.2c0,0.1,0,0.2,0.1,0.3c0.1,0.1,0.2,0.3,0.2,0.4c0,0.2-0.1,0.3-0.2,0.4c-0.1,0.1-0.3,0.2-0.5,0.2
		c-0.2,0-0.4-0.1-0.5-0.2C65,50.6,65,50.4,65,50.3c0-0.2,0.1-0.5,0.3-0.7c0.2-0.2,0.5-0.4,0.8-0.5c0.4-0.1,0.7-0.2,1.1-0.2
		c0.5,0,0.8,0.1,1.1,0.3c0.3,0.2,0.4,0.4,0.5,0.6c0,0.1,0.1,0.5,0.1,1v1.9c0,0.2,0,0.4,0,0.4c0,0.1,0,0.1,0.1,0.1c0,0,0.1,0,0.1,0
		c0.1,0,0.2-0.1,0.3-0.2l0.2,0.1c-0.2,0.3-0.4,0.4-0.5,0.6c-0.2,0.1-0.4,0.2-0.6,0.2c-0.3,0-0.5-0.1-0.6-0.2
		C67.5,53.6,67.5,53.4,67.4,53.1z M67.4,52.7v-1.6c-0.4,0.2-0.7,0.5-0.9,0.8c-0.1,0.2-0.2,0.4-0.2,0.6c0,0.2,0.1,0.3,0.2,0.4
		c0.1,0.1,0.2,0.1,0.4,0.1C67,53,67.2,52.9,67.4,52.7z"/>
	<path fill="#FFFFFF" d="M71.8,49v0.6c0.2-0.3,0.5-0.5,0.7-0.6c0.2-0.1,0.5-0.2,0.7-0.2c0.3,0,0.6,0.1,0.8,0.3s0.3,0.4,0.4,0.6
		c0.1,0.2,0.1,0.6,0.1,1.1v1.9c0,0.4,0,0.6,0.1,0.7c0.1,0.1,0.2,0.1,0.4,0.2v0.2h-2.4v-0.2c0.2,0,0.3-0.1,0.4-0.2
		c0.1-0.1,0.1-0.3,0.1-0.6v-2.2c0-0.4,0-0.6,0-0.8s-0.1-0.2-0.2-0.2c-0.1-0.1-0.2-0.1-0.2-0.1c-0.3,0-0.6,0.2-0.8,0.6v2.6
		c0,0.4,0,0.6,0.1,0.7c0.1,0.1,0.2,0.2,0.4,0.2v0.2h-2.4v-0.2c0.2,0,0.3-0.1,0.4-0.2c0.1-0.1,0.1-0.3,0.1-0.7V50
		c0-0.4,0-0.6-0.1-0.7c-0.1-0.1-0.2-0.1-0.4-0.2V49H71.8z"/>
	<path fill="#FFFFFF" d="M80.1,46.8v5.6c0,0.4,0,0.6,0,0.7c0,0.1,0.1,0.2,0.2,0.3c0.1,0.1,0.2,0.1,0.4,0.1v0.2l-2,0.4v-0.8
		c-0.2,0.3-0.5,0.5-0.7,0.6c-0.2,0.1-0.4,0.2-0.6,0.2c-0.6,0-1.1-0.3-1.5-0.8c-0.3-0.4-0.4-1-0.4-1.7c0-0.5,0.1-1,0.3-1.4
		c0.2-0.4,0.4-0.7,0.7-0.9c0.3-0.2,0.6-0.3,1-0.3c0.2,0,0.4,0,0.6,0.1s0.4,0.2,0.6,0.5V48c0-0.4,0-0.6,0-0.7c0-0.1-0.1-0.2-0.2-0.2
		c-0.1,0-0.2-0.1-0.5-0.1v-0.2H80.1z M78.7,50.1c-0.3-0.5-0.6-0.7-0.9-0.7c-0.1,0-0.2,0-0.3,0.1c-0.1,0.1-0.2,0.3-0.3,0.6
		C77,50.3,77,50.7,77,51.3c0,0.6,0,1.1,0.1,1.4c0.1,0.3,0.2,0.5,0.4,0.6c0.1,0.1,0.2,0.1,0.3,0.1c0.3,0,0.6-0.2,0.9-0.7V50.1
		L78.7,50.1z"/>
	<path fill="#FFFFFF" d="M93.4,46.8V47c-0.1,0-0.2,0-0.3,0.1c-0.1,0.1-0.2,0.2-0.2,0.3c0,0-0.1,0.3-0.3,0.8L90.3,54h-0.2l-1.7-4.5
		L86.4,54h-0.2l-2.3-5.7c-0.2-0.6-0.4-0.9-0.5-1C83.4,47.1,83.2,47,83,47v-0.2h3V47c-0.2,0-0.4,0-0.5,0.1c-0.1,0.1-0.1,0.2-0.1,0.3
		c0,0.1,0.1,0.4,0.3,0.8l1.4,3.4l1.1-2.7l-0.3-0.7c-0.2-0.4-0.3-0.7-0.4-0.8c-0.1-0.1-0.2-0.2-0.3-0.3C87.1,47,86.9,47,86.7,47v-0.2
		h3.4V47c-0.2,0-0.4,0-0.5,0.1c-0.1,0-0.1,0.1-0.2,0.1c0,0.1-0.1,0.1-0.1,0.2c0,0.1,0.1,0.3,0.2,0.7l1.3,3.3l1.1-3
		c0.1-0.3,0.2-0.5,0.2-0.6c0-0.1,0-0.2,0-0.3c0-0.1,0-0.3-0.1-0.3C92,47.1,91.8,47,91.6,47v-0.2L93.4,46.8L93.4,46.8z"/>
	<path fill="#FFFFFF" d="M95.7,53.1c-0.6,0.5-1.1,0.8-1.6,0.8c-0.3,0-0.5-0.1-0.7-0.3c-0.2-0.2-0.3-0.4-0.3-0.7c0-0.4,0.2-0.7,0.5-1
		c0.3-0.3,1-0.7,2.1-1.2v-0.5c0-0.4,0-0.6-0.1-0.7s-0.1-0.2-0.2-0.2c-0.1-0.1-0.2-0.1-0.4-0.1c-0.2,0-0.4,0-0.6,0.1
		c-0.1,0.1-0.1,0.1-0.1,0.2c0,0.1,0,0.2,0.1,0.3c0.1,0.1,0.2,0.3,0.2,0.4c0,0.2-0.1,0.3-0.2,0.4c-0.1,0.1-0.3,0.2-0.5,0.2
		c-0.2,0-0.4-0.1-0.5-0.2c-0.1-0.1-0.2-0.3-0.2-0.5c0-0.2,0.1-0.5,0.3-0.7c0.2-0.2,0.5-0.4,0.8-0.5c0.4-0.1,0.7-0.2,1.1-0.2
		c0.5,0,0.8,0.1,1.1,0.3c0.3,0.2,0.4,0.4,0.5,0.6c0,0.1,0.1,0.5,0.1,1v1.9c0,0.2,0,0.4,0,0.4c0,0.1,0,0.1,0.1,0.1c0,0,0.1,0,0.1,0
		c0.1,0,0.2-0.1,0.3-0.2l0.2,0.1c-0.2,0.3-0.4,0.4-0.5,0.6s-0.4,0.2-0.6,0.2c-0.3,0-0.5-0.1-0.6-0.2C95.8,53.6,95.7,53.4,95.7,53.1z
		 M95.7,52.7v-1.6c-0.4,0.2-0.7,0.5-0.9,0.8c-0.1,0.2-0.2,0.4-0.2,0.6c0,0.2,0.1,0.3,0.2,0.4c0.1,0.1,0.2,0.1,0.4,0.1
		C95.2,53,95.4,52.9,95.7,52.7z"/>
	<path fill="#FFFFFF" d="M99.9,47.2V49h1.1v0.5h-1.1v3c0,0.3,0,0.5,0,0.5c0,0.1,0.1,0.1,0.1,0.2c0.1,0,0.1,0.1,0.2,0.1
		c0.2,0,0.4-0.2,0.6-0.5l0.2,0.1c-0.3,0.7-0.7,1-1.4,1c-0.3,0-0.6-0.1-0.8-0.3c-0.2-0.2-0.3-0.4-0.4-0.6c0-0.1-0.1-0.4-0.1-1v-2.6
		h-0.6v-0.2c0.4-0.3,0.8-0.6,1.1-1c0.3-0.3,0.6-0.7,0.8-1.1L99.9,47.2L99.9,47.2z"/>
	<path fill="#FFFFFF" d="M105.4,51.2h-2.7c0,0.6,0.2,1.1,0.5,1.5c0.2,0.3,0.5,0.4,0.9,0.4c0.2,0,0.4-0.1,0.6-0.2
		c0.2-0.1,0.4-0.3,0.5-0.6l0.2,0.1c-0.3,0.5-0.6,0.9-0.9,1.1c-0.3,0.2-0.7,0.3-1.1,0.3c-0.7,0-1.3-0.3-1.6-0.8
		c-0.3-0.4-0.4-1-0.4-1.7c0-0.8,0.2-1.4,0.7-1.9c0.4-0.5,0.9-0.7,1.5-0.7c0.5,0,0.9,0.2,1.3,0.6C105.2,49.9,105.4,50.5,105.4,51.2z
		 M104.1,50.9c0-0.6,0-0.9-0.1-1.1c-0.1-0.2-0.2-0.4-0.3-0.5c-0.1-0.1-0.2-0.1-0.3-0.1c-0.2,0-0.3,0.1-0.4,0.3
		c-0.2,0.3-0.3,0.7-0.3,1.3v0.2H104.1z"/>
	<path fill="#FFFFFF" d="M107.7,49v1.1c0.3-0.5,0.6-0.8,0.8-1c0.2-0.2,0.5-0.2,0.7-0.2c0.2,0,0.3,0.1,0.5,0.2
		c0.1,0.1,0.2,0.3,0.2,0.5c0,0.2-0.1,0.4-0.2,0.5c-0.1,0.1-0.2,0.2-0.4,0.2c-0.2,0-0.3-0.1-0.5-0.2c-0.1-0.1-0.2-0.2-0.2-0.2
		c0,0-0.1,0-0.1,0c-0.1,0-0.2,0-0.3,0.1c-0.1,0.1-0.2,0.3-0.3,0.5c-0.1,0.3-0.2,0.7-0.2,1.1v1.1l0,0.3c0,0.2,0,0.3,0,0.4
		c0,0.1,0.1,0.2,0.2,0.2s0.2,0.1,0.4,0.1v0.2h-2.6v-0.2c0.2,0,0.4-0.1,0.4-0.2c0.1-0.1,0.1-0.4,0.1-0.8V50c0-0.3,0-0.5,0-0.5
		c0-0.1-0.1-0.2-0.1-0.2c-0.1,0-0.2-0.1-0.3-0.1V49H107.7z"/>
	<path fill="#FFFFFF" d="M114.8,50.6v2c0,0.4,0,0.6,0.1,0.7c0,0.1,0.1,0.2,0.2,0.2c0.1,0.1,0.3,0.1,0.7,0.1v0.2h-3.6v-0.2
		c0.3,0,0.5,0,0.7-0.1c0.1-0.1,0.2-0.1,0.2-0.2s0.1-0.3,0.1-0.7V48c0-0.4,0-0.6-0.1-0.7s-0.1-0.2-0.2-0.2c-0.1-0.1-0.3-0.1-0.7-0.1
		v-0.2h3.3c0.9,0,1.5,0.1,1.9,0.2c0.4,0.1,0.7,0.3,1,0.6s0.4,0.7,0.4,1.1c0,0.5-0.2,0.9-0.6,1.3c-0.2,0.2-0.6,0.4-1,0.5l1.7,2.4
		c0.2,0.3,0.4,0.5,0.5,0.6c0.1,0.1,0.3,0.2,0.5,0.2v0.2h-2.2l-2.3-3.2L114.8,50.6L114.8,50.6z M114.8,47.2v3.1h0.3
		c0.5,0,0.8,0,1.1-0.1s0.4-0.2,0.6-0.5c0.1-0.2,0.2-0.5,0.2-0.9c0-0.5-0.1-0.9-0.4-1.2c-0.3-0.3-0.7-0.4-1.2-0.4L114.8,47.2
		L114.8,47.2z"/>
	<path fill="#FFFFFF" d="M123.8,51.2h-2.7c0,0.6,0.2,1.1,0.5,1.5c0.2,0.3,0.5,0.4,0.9,0.4c0.2,0,0.4-0.1,0.6-0.2
		c0.2-0.1,0.4-0.3,0.5-0.6l0.2,0.1c-0.3,0.5-0.6,0.9-0.9,1.1c-0.3,0.2-0.7,0.3-1.1,0.3c-0.7,0-1.3-0.3-1.6-0.8
		c-0.3-0.4-0.4-1-0.4-1.7c0-0.8,0.2-1.4,0.7-1.9c0.4-0.5,0.9-0.7,1.5-0.7c0.5,0,0.9,0.2,1.3,0.6C123.6,49.9,123.8,50.5,123.8,51.2z
		 M122.6,50.9c0-0.6,0-0.9-0.1-1.1c-0.1-0.2-0.2-0.4-0.3-0.5c-0.1-0.1-0.2-0.1-0.3-0.1c-0.2,0-0.3,0.1-0.4,0.3
		c-0.2,0.3-0.3,0.7-0.3,1.3v0.2H122.6z"/>
	<path fill="#FFFFFF" d="M127.2,48.9l0.1,1.7h-0.2c-0.2-0.5-0.4-0.8-0.7-1c-0.2-0.2-0.5-0.3-0.7-0.3c-0.1,0-0.3,0-0.4,0.1
		s-0.1,0.2-0.1,0.3c0,0.1,0,0.2,0.1,0.3c0.1,0.1,0.4,0.4,0.9,0.7c0.5,0.3,0.8,0.6,1,0.9c0.2,0.2,0.2,0.5,0.2,0.8
		c0,0.3-0.1,0.5-0.2,0.8c-0.1,0.3-0.3,0.5-0.6,0.6c-0.2,0.1-0.5,0.2-0.8,0.2c-0.2,0-0.5-0.1-0.9-0.2c-0.1,0-0.2-0.1-0.2-0.1
		c-0.1,0-0.2,0.1-0.3,0.3h-0.2l-0.1-1.7h0.2c0.2,0.5,0.4,0.8,0.6,1c0.3,0.2,0.5,0.3,0.8,0.3c0.2,0,0.3-0.1,0.4-0.2
		c0.1-0.1,0.2-0.2,0.2-0.4c0-0.2-0.1-0.3-0.2-0.4c-0.1-0.1-0.3-0.3-0.7-0.5c-0.5-0.4-0.9-0.6-1-0.8c-0.2-0.3-0.3-0.6-0.3-0.9
		c0-0.4,0.1-0.7,0.4-1c0.3-0.3,0.6-0.5,1.1-0.5c0.3,0,0.5,0.1,0.8,0.2c0.1,0.1,0.2,0.1,0.2,0.1c0.1,0,0.1,0,0.2,0
		c0,0,0.1-0.1,0.2-0.2L127.2,48.9L127.2,48.9z"/>
	<path fill="#FFFFFF" d="M130.3,48.8c0.4,0,0.8,0.1,1.2,0.3c0.4,0.2,0.6,0.5,0.8,0.9c0.2,0.4,0.3,0.8,0.3,1.3c0,0.7-0.2,1.3-0.5,1.7
		c-0.4,0.6-1,0.8-1.7,0.8c-0.7,0-1.3-0.3-1.7-0.8c-0.4-0.5-0.6-1.1-0.6-1.8c0-0.7,0.2-1.3,0.6-1.8C129.1,49.1,129.6,48.8,130.3,48.8
		z M130.4,49.2c-0.2,0-0.3,0.1-0.5,0.2c-0.1,0.1-0.2,0.4-0.2,0.8c0,0.4-0.1,0.9-0.1,1.6c0,0.4,0,0.7,0.1,1c0,0.2,0.1,0.4,0.2,0.6
		c0.1,0.1,0.3,0.2,0.4,0.2c0.2,0,0.3,0,0.4-0.1c0.1-0.1,0.2-0.3,0.3-0.5c0.1-0.3,0.1-1,0.1-2c0-0.6,0-1-0.1-1.2s-0.2-0.4-0.3-0.5
		C130.6,49.3,130.5,49.2,130.4,49.2z"/>
	<path fill="#FFFFFF" d="M137.8,49v3.8c0,0.4,0,0.6,0.1,0.7c0.1,0.1,0.2,0.1,0.4,0.2v0.2h-2v-0.6c-0.2,0.3-0.5,0.5-0.7,0.6
		c-0.2,0.1-0.5,0.2-0.8,0.2c-0.3,0-0.5-0.1-0.7-0.3c-0.2-0.2-0.4-0.4-0.4-0.6c-0.1-0.2-0.1-0.6-0.1-1.2V50c0-0.4,0-0.6-0.1-0.7
		c-0.1-0.1-0.2-0.1-0.4-0.2V49h2v3.3c0,0.3,0,0.6,0,0.7c0,0.1,0.1,0.2,0.2,0.2c0.1,0.1,0.2,0.1,0.2,0.1c0.1,0,0.2,0,0.3-0.1
		c0.1-0.1,0.3-0.3,0.5-0.5V50c0-0.4,0-0.6-0.1-0.7c-0.1-0.1-0.2-0.1-0.4-0.2V49H137.8z"/>
	<path fill="#FFFFFF" d="M140.7,49v1.1c0.3-0.5,0.6-0.8,0.8-1c0.2-0.2,0.5-0.2,0.7-0.2c0.2,0,0.3,0.1,0.5,0.2
		c0.1,0.1,0.2,0.3,0.2,0.5c0,0.2-0.1,0.4-0.2,0.5c-0.1,0.1-0.2,0.2-0.4,0.2c-0.2,0-0.3-0.1-0.5-0.2c-0.1-0.1-0.2-0.2-0.2-0.2
		c0,0-0.1,0-0.1,0c-0.1,0-0.2,0-0.3,0.1c-0.1,0.1-0.2,0.3-0.3,0.5c-0.1,0.3-0.2,0.7-0.2,1.1v1.1l0,0.3c0,0.2,0,0.3,0,0.4
		c0,0.1,0.1,0.2,0.2,0.2s0.2,0.1,0.4,0.1v0.2h-2.6v-0.2c0.2,0,0.4-0.1,0.4-0.2c0.1-0.1,0.1-0.4,0.1-0.8V50c0-0.3,0-0.5,0-0.5
		c0-0.1-0.1-0.2-0.2-0.2c-0.1,0-0.2-0.1-0.3-0.1V49H140.7z"/>
	<path fill="#FFFFFF" d="M146.9,52.6l0.2,0.1c-0.2,0.4-0.5,0.7-0.9,1c-0.3,0.2-0.7,0.3-1.1,0.3c-0.6,0-1.2-0.2-1.5-0.7
		c-0.4-0.5-0.6-1.1-0.6-1.8c0-0.7,0.2-1.2,0.5-1.7c0.4-0.6,1-0.9,1.8-0.9c0.5,0,0.9,0.1,1.2,0.4s0.4,0.5,0.4,0.8
		c0,0.2-0.1,0.4-0.2,0.5c-0.1,0.1-0.3,0.2-0.5,0.2c-0.2,0-0.4-0.1-0.5-0.2c-0.1-0.1-0.2-0.4-0.2-0.7c0-0.2-0.1-0.4-0.1-0.5
		c-0.1-0.1-0.2-0.1-0.3-0.1c-0.2,0-0.3,0.1-0.4,0.3c-0.2,0.3-0.3,0.7-0.3,1.2c0,0.5,0.1,0.9,0.2,1.3s0.3,0.7,0.6,0.9
		c0.2,0.1,0.4,0.2,0.7,0.2c0.2,0,0.3,0,0.5-0.1C146.5,53,146.7,52.8,146.9,52.6z"/>
	<path fill="#FFFFFF" d="M151.5,51.2h-2.7c0,0.6,0.2,1.1,0.5,1.5c0.2,0.3,0.5,0.4,0.9,0.4c0.2,0,0.4-0.1,0.6-0.2
		c0.2-0.1,0.3-0.3,0.5-0.6l0.2,0.1c-0.3,0.5-0.6,0.9-0.9,1.1c-0.3,0.2-0.7,0.3-1.1,0.3c-0.7,0-1.3-0.3-1.6-0.8
		c-0.3-0.4-0.4-1-0.4-1.7c0-0.8,0.2-1.4,0.7-1.9c0.4-0.5,0.9-0.7,1.5-0.7c0.5,0,0.9,0.2,1.3,0.6C151.3,49.9,151.5,50.5,151.5,51.2z
		 M150.2,50.9c0-0.6,0-0.9-0.1-1.1c-0.1-0.2-0.2-0.4-0.3-0.5c-0.1-0.1-0.2-0.1-0.3-0.1c-0.2,0-0.3,0.1-0.4,0.3
		c-0.2,0.3-0.3,0.7-0.3,1.3v0.2H150.2z"/>
	<path fill="#FFFFFF" d="M154.9,48.9l0.1,1.7h-0.2c-0.2-0.5-0.4-0.8-0.7-1c-0.2-0.2-0.5-0.3-0.7-0.3c-0.1,0-0.3,0-0.4,0.1
		c-0.1,0.1-0.1,0.2-0.1,0.3c0,0.1,0,0.2,0.1,0.3c0.1,0.1,0.4,0.4,0.9,0.7c0.5,0.3,0.8,0.6,1,0.9c0.2,0.2,0.2,0.5,0.2,0.8
		c0,0.3-0.1,0.5-0.2,0.8c-0.1,0.3-0.3,0.5-0.6,0.6c-0.2,0.1-0.5,0.2-0.8,0.2c-0.2,0-0.5-0.1-0.9-0.2c-0.1,0-0.2-0.1-0.2-0.1
		c-0.1,0-0.2,0.1-0.3,0.3h-0.2l-0.1-1.7h0.2c0.2,0.5,0.4,0.8,0.6,1c0.3,0.2,0.5,0.3,0.8,0.3c0.2,0,0.3-0.1,0.4-0.2
		c0.1-0.1,0.2-0.2,0.2-0.4c0-0.2-0.1-0.3-0.2-0.4c-0.1-0.1-0.3-0.3-0.7-0.5c-0.5-0.4-0.9-0.6-1-0.8c-0.2-0.3-0.3-0.6-0.3-0.9
		c0-0.4,0.1-0.7,0.4-1c0.3-0.3,0.6-0.5,1.1-0.5c0.3,0,0.5,0.1,0.8,0.2c0.1,0.1,0.2,0.1,0.2,0.1c0.1,0,0.1,0,0.1,0
		c0,0,0.1-0.1,0.2-0.2L154.9,48.9L154.9,48.9z"/>
</g>
</svg>
